<?xml version="1.0" encoding="utf-8"?>
<!-- created with bpmn-js / http://bpmn.io -->
<!DOCTYPE svg PUBLIC "-//W3C//DTD SVG 1.1//EN" "http://www.w3.org/Graphics/SVG/1.1/DTD/svg11.dtd">
<svg xmlns="http://www.w3.org/2000/svg" xmlns:xlink="http://www.w3.org/1999/xlink" width="1384" height="675" viewBox="-6 144 1384 675" version="1.1"><defs><marker id="sequenceflow-end-white-hsl_225_10_15_-586j0h8lmh773xn5hhv394md7" viewBox="0 0 20 20" refX="11" refY="10" markerWidth="10" markerHeight="10" orient="auto"><path d="M 1 5 L 11 10 L 1 15 Z" style="stroke-linecap: round; stroke-linejoin: round; stroke: rgb(34, 36, 42); stroke-width: 1px; fill: rgb(34, 36, 42);"/></marker></defs><g class="djs-group"><g class="djs-element djs-shape" data-element-id="sid-AF142D7A-F894-463A-83B4-EBCE6F5C4009" style="display: block;" transform="matrix(1 0 0 1 0 150)"><g class="djs-visual"><rect x="0" y="0" width="1372" height="663" rx="0" ry="0" style="stroke-linecap: round; stroke-linejoin: round; stroke: rgb(34, 36, 42); stroke-width: 1.5px; fill: white; fill-opacity: 0.95;"/><path style="fill: none; stroke-linecap: round; stroke-linejoin: round; stroke: rgb(34, 36, 42); stroke-width: 1.5px;" d="M30,0L30,663"/><text lineHeight="1.2" class="djs-label" style="font-family: Arial, sans-serif; font-size: 12px; font-weight: normal; fill: rgb(34, 36, 42);" transform="matrix(-1.83697e-16 -1 1 -1.83697e-16 0 663)"><tspan x="284.8154296875" y="18.6">fs Regressnahme</tspan></text></g><rect class="djs-hit djs-hit-all" x="0" y="0" width="1372" height="663" style="fill: none; stroke-opacity: 0; stroke: white; stroke-width: 15px;"/><rect x="-6" y="-6" rx="4" width="1384" height="675" class="djs-outline" style="fill: none;"/></g><g class="djs-children"><g class="djs-group"><g class="djs-element djs-shape" data-element-id="sid-1D8F74AA-FCDB-4968-8673-152E59AB9A71" style="display: block;" transform="matrix(1 0 0 1 30 563)"><g class="djs-visual"><rect x="0" y="0" width="1342" height="250" rx="0" ry="0" style="stroke-linecap: round; stroke-linejoin: round; stroke: rgb(34, 36, 42); stroke-width: 1.5px; fill: white; fill-opacity: 0.35;"/><text lineHeight="1.2" class="djs-label" style="font-family: Arial, sans-serif; font-size: 12px; font-weight: normal; fill: rgb(34, 36, 42);" transform="matrix(-1.83697e-16 -1 1 -1.83697e-16 0 250)"><tspan x="75.6494140625" y="18.6">fs Moskau Inkasso</tspan></text></g><rect class="djs-hit djs-hit-all" x="0" y="0" width="1342" height="250" style="fill: none; stroke-opacity: 0; stroke: white; stroke-width: 15px;"/><rect x="-6" y="-6" rx="4" width="1354" height="262" class="djs-outline" style="fill: none;"/></g></g><g class="djs-group"><g class="djs-element djs-shape" data-element-id="sid-28DBCCA8-F324-402D-BB83-FCCF87BABCD0" style="display: block;" transform="matrix(1 0 0 1 30 150)"><g class="djs-visual"><rect x="0" y="0" width="1342" height="413" rx="0" ry="0" style="stroke-linecap: round; stroke-linejoin: round; stroke: rgb(34, 36, 42); stroke-width: 1.5px; fill: white; fill-opacity: 0.35;"/><text lineHeight="1.2" class="djs-label" style="font-family: Arial, sans-serif; font-size: 12px; font-weight: normal; fill: rgb(34, 36, 42);" transform="matrix(-1.83697e-16 -1 1 -1.83697e-16 0 413)"><tspan x="169.818359375" y="18.6">fs Versicherer</tspan></text></g><rect class="djs-hit djs-hit-all" x="0" y="0" width="1342" height="413" style="fill: none; stroke-opacity: 0; stroke: white; stroke-width: 15px;"/><rect x="-6" y="-6" rx="4" width="1354" height="425" class="djs-outline" style="fill: none;"/></g></g><g class="djs-group"><g class="djs-element djs-shape" data-element-id="sid-5D2D00A7-CBEF-44FB-B747-CFB14734D3B2" style="display: block;" transform="matrix(1 0 0 1 90 210)"><g class="djs-visual"><circle cx="15" cy="15" r="15" style="stroke-linecap: round; stroke-linejoin: round; stroke: rgb(34, 36, 42); stroke-width: 2px; fill: white; fill-opacity: 0.95;"/></g><rect class="djs-hit djs-hit-all" x="0" y="0" width="30" height="30" style="fill: none; stroke-opacity: 0; stroke: white; stroke-width: 15px;"/><rect x="-6" y="-6" rx="4" width="42" height="42" class="djs-outline" style="fill: none;"/></g></g><g class="djs-group"><g class="djs-element djs-shape" data-element-id="sid-5D2D00A7-CBEF-44FB-B747-CFB14734D3B2_label" style="display: block;" transform="matrix(1 0 0 1 68 242)"><g class="djs-visual"><text lineHeight="1.2" class="djs-label" style="font-family: Arial, sans-serif; font-size: 11px; font-weight: normal; fill: rgb(34, 36, 42);"><tspan x="33.268798828125" y="9.899999999999999">fs</tspan><tspan x="25.2099609375" y="23.099999999999998">Start</tspan><tspan x="0" y="36.3">Regressnahme</tspan></text></g><rect class="djs-hit djs-hit-all" x="0" y="0" width="75" height="40" style="fill: none; stroke-opacity: 0; stroke: white; stroke-width: 15px;"/><rect x="-6" y="-6" rx="4" width="87" height="52" class="djs-outline" style="fill: none;"/></g></g><g class="djs-group"><g class="djs-element djs-shape" data-element-id="sid-5B4A8060-EC03-44C2-96CB-05B21B8A8E74" style="display: block;" transform="matrix(1 0 0 1 195 185)"><g class="djs-visual"><rect x="0" y="0" width="100" height="80" rx="10" ry="10" style="stroke-linecap: round; stroke-linejoin: round; stroke: rgb(34, 36, 42); stroke-width: 2px; fill: white; fill-opacity: 0.95;"/><text lineHeight="1.2" class="djs-label" style="font-family: Arial, sans-serif; font-size: 12px; font-weight: normal; fill: rgb(34, 36, 42);"><tspan x="45.828125" y="29.200000000000003">fs </tspan><tspan x="11.6513671875" y="43.6">Regresspflicht</tspan><tspan x="32.82421875" y="58">prüfen</tspan></text></g><rect class="djs-hit djs-hit-all" x="0" y="0" width="100" height="80" style="fill: none; stroke-opacity: 0; stroke: white; stroke-width: 15px;"/><rect x="-6" y="-6" rx="4" width="112" height="92" class="djs-outline" style="fill: none;"/></g></g><g class="djs-group"><g class="djs-element djs-shape" data-element-id="sid-18210934-CB35-449E-A89D-A14B7D4D1B6B" style="display: block;" transform="matrix(1 0 0 1 360 205)"><g class="djs-visual"><polygon points="20,0 40,20 20,40 0,20" style="stroke-linecap: round; stroke-linejoin: round; stroke: rgb(34, 36, 42); stroke-width: 2px; fill: white; fill-opacity: 0.95;"/><path d="m 12.8,12 5.942857142857143,7.771428571428571 -5.942857142857143,7.771428571428571 2.742857142857143,0 4.571428571428571,-5.971382857142857 4.571428571428571,5.971382857142857 2.742857142857143,0 -5.942857142857143,-7.771428571428571 5.942857142857143,-7.771428571428571 -2.742857142857143,0 -4.571428571428571,5.971382857142857 -4.571428571428571,-5.971382857142857 -2.742857142857143,0 z" style="fill: rgb(34, 36, 42); stroke-linecap: round; stroke-linejoin: round; stroke: rgb(34, 36, 42); stroke-width: 1px;"/></g><rect class="djs-hit djs-hit-all" x="0" y="0" width="40" height="40" style="fill: none; stroke-opacity: 0; stroke: white; stroke-width: 15px;"/><rect x="-6" y="-6" rx="4" width="52" height="52" class="djs-outline" style="fill: none;"/></g></g><g class="djs-group"><g class="djs-element djs-shape" data-element-id="sid-010F69F7-F978-4CE6-8BD5-66D006D0231F" style="display: block;" transform="matrix(1 0 0 1 1320 211)"><g class="djs-visual"><circle cx="14" cy="14" r="14" style="stroke-linecap: round; stroke-linejoin: round; stroke: rgb(34, 36, 42); stroke-width: 4px; fill: white; fill-opacity: 0.95;"/></g><rect class="djs-hit djs-hit-all" x="0" y="0" width="28" height="28" style="fill: none; stroke-opacity: 0; stroke: white; stroke-width: 15px;"/><rect x="-6" y="-6" rx="4" width="40" height="40" class="djs-outline" style="fill: none;"/></g></g><g class="djs-group"><g class="djs-element djs-shape" data-element-id="sid-08E2E804-F48A-4585-9543-31621DE5DE97" style="display: block;" transform="matrix(1 0 0 1 1170 185)"><g class="djs-visual"><rect x="0" y="0" width="100" height="80" rx="10" ry="10" style="stroke-linecap: round; stroke-linejoin: round; stroke: rgb(34, 36, 42); stroke-width: 2px; fill: white; fill-opacity: 0.95;"/><text lineHeight="1.2" class="djs-label" style="font-family: Arial, sans-serif; font-size: 12px; font-weight: normal; fill: rgb(34, 36, 42);"><tspan x="34.3310546875" y="36.4">fs Fall </tspan><tspan x="24.158203125" y="50.8">schließen</tspan></text></g><rect class="djs-hit djs-hit-all" x="0" y="0" width="100" height="80" style="fill: none; stroke-opacity: 0; stroke: white; stroke-width: 15px;"/><rect x="-6" y="-6" rx="4" width="112" height="92" class="djs-outline" style="fill: none;"/></g></g><g class="djs-group"><g class="djs-element djs-shape" data-element-id="sid-1D00E85B-2FFC-4DDB-8458-EE958B2E1967" style="display: block;" transform="matrix(1 0 0 1 495 300)"><g class="djs-visual"><polygon points="20,0 40,20 20,40 0,20" style="stroke-linecap: round; stroke-linejoin: round; stroke: rgb(34, 36, 42); stroke-width: 2px; fill: white; fill-opacity: 0.95;"/><circle cx="20" cy="20" r="12" style="stroke-linecap: round; stroke-linejoin: round; stroke: rgb(34, 36, 42); stroke-width: 1px; fill: none;"/><circle cx="20" cy="20" r="10" style="stroke-linecap: round; stroke-linejoin: round; stroke: rgb(34, 36, 42); stroke-width: 1px; fill: none;"/><path d="m 14.399999999999999,17.6 5.890909090909091,-3.9272727272727272 5.890909090909091,3.9272727272727272 -1.9636363636363636,7.8545454545454545 -7.8545454545454545,0 z" style="fill: none; stroke-linecap: round; stroke-linejoin: round; stroke: rgb(34, 36, 42); stroke-width: 2px;"/></g><rect class="djs-hit djs-hit-all" x="0" y="0" width="40" height="40" style="fill: none; stroke-opacity: 0; stroke: white; stroke-width: 15px;"/><rect x="-6" y="-6" rx="4" width="52" height="52" class="djs-outline" style="fill: none;"/></g></g><g class="djs-group"><g class="djs-element djs-shape" data-element-id="sid-2A612E3A-C202-4CD1-8D9C-8AD6CA69C955" style="display: block;" transform="matrix(1 0 0 1 585 305)"><g class="djs-visual"><circle cx="15" cy="15" r="15" style="stroke-linecap: round; stroke-linejoin: round; stroke: rgb(34, 36, 42); stroke-width: 1.5px; fill: white; fill-opacity: 0.95;"/><circle cx="15" cy="15" r="12" style="stroke-linecap: round; stroke-linejoin: round; stroke: rgb(34, 36, 42); stroke-width: 1.5px; fill: none;"/><path d="m 7.05,9.45 l 0,10.5 l 15.75,0 l 0,-10.5 z l 7.875,4.5 l 7.875,-4.5" style="fill: white; stroke-linecap: round; stroke-linejoin: round; stroke: rgb(34, 36, 42); stroke-width: 1px;"/></g><rect class="djs-hit djs-hit-all" x="0" y="0" width="30" height="30" style="fill: none; stroke-opacity: 0; stroke: white; stroke-width: 15px;"/><rect x="-6" y="-6" rx="4" width="42" height="42" class="djs-outline" style="fill: none;"/></g></g><g class="djs-group"><g class="djs-element djs-shape" data-element-id="sid-2A612E3A-C202-4CD1-8D9C-8AD6CA69C955_label" style="display: block;" transform="matrix(1 0 0 1 577 337)"><g class="djs-visual"><text lineHeight="1.2" class="djs-label" style="font-family: Arial, sans-serif; font-size: 11px; font-weight: normal; fill: rgb(34, 36, 42);"><tspan x="18.758056640625" y="9.899999999999999">fs</tspan><tspan x="3.4033203125" y="23.099999999999998">Zahlung</tspan><tspan x="0" y="36.3">ist erfolgt</tspan></text></g><rect class="djs-hit djs-hit-all" x="0" y="0" width="46" height="40" style="fill: none; stroke-opacity: 0; stroke: white; stroke-width: 15px;"/><rect x="-6" y="-6" rx="4" width="58" height="52" class="djs-outline" style="fill: none;"/></g></g><g class="djs-group"><g class="djs-element djs-shape" data-element-id="sid-33B7E0C7-D817-48F1-96D0-F6BC85A60A5C" style="display: block;" transform="matrix(1 0 0 1 330 280)"><g class="djs-visual"><rect x="0" y="0" width="100" height="80" rx="10" ry="10" style="stroke-linecap: round; stroke-linejoin: round; stroke: rgb(34, 36, 42); stroke-width: 2px; fill: white; fill-opacity: 0.95;"/><text lineHeight="1.2" class="djs-label" style="font-family: Arial, sans-serif; font-size: 12px; font-weight: normal; fill: rgb(34, 36, 42);"><tspan x="35.828125" y="29.200000000000003">fs VN</tspan><tspan x="23.3212890625" y="43.6">in Regreß</tspan><tspan x="28.154296875" y="58">nehmen</tspan></text></g><rect class="djs-hit djs-hit-all" x="0" y="0" width="100" height="80" style="fill: none; stroke-opacity: 0; stroke: white; stroke-width: 15px;"/><rect x="-6" y="-6" rx="4" width="112" height="92" class="djs-outline" style="fill: none;"/></g></g><g class="djs-group"><g class="djs-element djs-shape" data-element-id="sid-D7297595-0094-429A-A348-D54E76818A82" style="display: block;" transform="matrix(1 0 0 1 660 280)"><g class="djs-visual"><rect x="0" y="0" width="100" height="80" rx="10" ry="10" style="stroke-linecap: round; stroke-linejoin: round; stroke: rgb(34, 36, 42); stroke-width: 2px; fill: white; fill-opacity: 0.95;"/><text lineHeight="1.2" class="djs-label" style="font-family: Arial, sans-serif; font-size: 12px; font-weight: normal; fill: rgb(34, 36, 42);"><tspan x="45.828125" y="29.200000000000003">fs</tspan><tspan x="10.9736328125" y="43.6">Zahlungseinga</tspan><tspan x="21.8115234375" y="58">ng buchen</tspan></text></g><rect class="djs-hit djs-hit-all" x="0" y="0" width="100" height="80" style="fill: none; stroke-opacity: 0; stroke: white; stroke-width: 15px;"/><rect x="-6" y="-6" rx="4" width="112" height="92" class="djs-outline" style="fill: none;"/></g></g><g class="djs-group"><g class="djs-element djs-shape" data-element-id="sid-4D025FE3-B0DC-471F-B589-965074CA5FE0" style="display: block;" transform="matrix(1 0 0 1 1080 205)"><g class="djs-visual"><polygon points="20,0 40,20 20,40 0,20" style="stroke-linecap: round; stroke-linejoin: round; stroke: rgb(34, 36, 42); stroke-width: 2px; fill: white; fill-opacity: 0.95;"/><path d="m 12.8,12 5.942857142857143,7.771428571428571 -5.942857142857143,7.771428571428571 2.742857142857143,0 4.571428571428571,-5.971382857142857 4.571428571428571,5.971382857142857 2.742857142857143,0 -5.942857142857143,-7.771428571428571 5.942857142857143,-7.771428571428571 -2.742857142857143,0 -4.571428571428571,5.971382857142857 -4.571428571428571,-5.971382857142857 -2.742857142857143,0 z" style="fill: rgb(34, 36, 42); stroke-linecap: round; stroke-linejoin: round; stroke: rgb(34, 36, 42); stroke-width: 1px;"/></g><rect class="djs-hit djs-hit-all" x="0" y="0" width="40" height="40" style="fill: none; stroke-opacity: 0; stroke: white; stroke-width: 15px;"/><rect x="-6" y="-6" rx="4" width="52" height="52" class="djs-outline" style="fill: none;"/></g></g><g class="djs-group"><g class="djs-element djs-shape" data-element-id="sid-F3A5920C-CBA8-4356-82DD-2A6903D74B08" style="display: block;" transform="matrix(1 0 0 1 585 405)"><g class="djs-visual"><circle cx="15" cy="15" r="15" style="stroke-linecap: round; stroke-linejoin: round; stroke: rgb(34, 36, 42); stroke-width: 1.5px; fill: white; fill-opacity: 0.95;"/><circle cx="15" cy="15" r="12" style="stroke-linecap: round; stroke-linejoin: round; stroke: rgb(34, 36, 42); stroke-width: 1.5px; fill: none;"/><path d="m 7.05,9.45 l 0,10.5 l 15.75,0 l 0,-10.5 z l 7.875,4.5 l 7.875,-4.5" style="fill: white; stroke-linecap: round; stroke-linejoin: round; stroke: rgb(34, 36, 42); stroke-width: 1px;"/></g><rect class="djs-hit djs-hit-all" x="0" y="0" width="30" height="30" style="fill: none; stroke-opacity: 0; stroke: white; stroke-width: 15px;"/><rect x="-6" y="-6" rx="4" width="42" height="42" class="djs-outline" style="fill: none;"/></g></g><g class="djs-group"><g class="djs-element djs-shape" data-element-id="sid-F3A5920C-CBA8-4356-82DD-2A6903D74B08_label" style="display: block;" transform="matrix(1 0 0 1 564 437)"><g class="djs-visual"><text lineHeight="1.2" class="djs-label" style="font-family: Arial, sans-serif; font-size: 11px; font-weight: normal; fill: rgb(34, 36, 42);"><tspan x="0" y="9.899999999999999">fs Widerspruch</tspan><tspan x="20.421630859375" y="23.099999999999998">erfolgt</tspan></text></g><rect class="djs-hit djs-hit-all" x="0" y="0" width="73" height="27" style="fill: none; stroke-opacity: 0; stroke: white; stroke-width: 15px;"/><rect x="-6" y="-6" rx="4" width="85" height="39" class="djs-outline" style="fill: none;"/></g></g><g class="djs-group"><g class="djs-element djs-shape" data-element-id="sid-DA2DEC28-9D8F-4EE1-ACC4-CAEBA14BB368" style="display: block;" transform="matrix(1 0 0 1 660 380)"><g class="djs-visual"><rect x="0" y="0" width="100" height="80" rx="10" ry="10" style="stroke-linecap: round; stroke-linejoin: round; stroke: rgb(34, 36, 42); stroke-width: 2px; fill: white; fill-opacity: 0.95;"/><text lineHeight="1.2" class="djs-label" style="font-family: Arial, sans-serif; font-size: 12px; font-weight: normal; fill: rgb(34, 36, 42);"><tspan x="45.828125" y="29.200000000000003">fs</tspan><tspan x="16.66015625" y="43.6">Widerspruch</tspan><tspan x="32.82421875" y="58">prüfen</tspan></text></g><rect class="djs-hit djs-hit-all" x="0" y="0" width="100" height="80" style="fill: none; stroke-opacity: 0; stroke: white; stroke-width: 15px;"/><rect x="-6" y="-6" rx="4" width="112" height="92" class="djs-outline" style="fill: none;"/></g></g><g class="djs-group"><g class="djs-element djs-shape" data-element-id="sid-066D3607-0838-492B-B961-3EDCB8BE25FA" style="display: block;" transform="matrix(1 0 0 1 825 400)"><g class="djs-visual"><polygon points="20,0 40,20 20,40 0,20" style="stroke-linecap: round; stroke-linejoin: round; stroke: rgb(34, 36, 42); stroke-width: 2px; fill: white; fill-opacity: 0.95;"/><path d="m 12.8,12 5.942857142857143,7.771428571428571 -5.942857142857143,7.771428571428571 2.742857142857143,0 4.571428571428571,-5.971382857142857 4.571428571428571,5.971382857142857 2.742857142857143,0 -5.942857142857143,-7.771428571428571 5.942857142857143,-7.771428571428571 -2.742857142857143,0 -4.571428571428571,5.971382857142857 -4.571428571428571,-5.971382857142857 -2.742857142857143,0 z" style="fill: rgb(34, 36, 42); stroke-linecap: round; stroke-linejoin: round; stroke: rgb(34, 36, 42); stroke-width: 1px;"/></g><rect class="djs-hit djs-hit-all" x="0" y="0" width="40" height="40" style="fill: none; stroke-opacity: 0; stroke: white; stroke-width: 15px;"/><rect x="-6" y="-6" rx="4" width="52" height="52" class="djs-outline" style="fill: none;"/></g></g><g class="djs-group"><g class="djs-element djs-shape" data-element-id="sid-53CC144C-5431-42D9-A22A-531569BB77A1" style="display: block;" transform="matrix(1 0 0 1 585 495)"><g class="djs-visual"><circle cx="15" cy="15" r="15" style="stroke-linecap: round; stroke-linejoin: round; stroke: rgb(34, 36, 42); stroke-width: 1.5px; fill: white; fill-opacity: 0.95;"/><circle cx="15" cy="15" r="12" style="stroke-linecap: round; stroke-linejoin: round; stroke: rgb(34, 36, 42); stroke-width: 1.5px; fill: none;"/><circle cx="15" cy="15" r="9" style="stroke-linecap: round; stroke-linejoin: round; stroke: rgb(34, 36, 42); stroke-width: 2px; fill: white;"/><path d="M 15,15 l 1.875,-6.25 m -1.875,6.25 l 4.375,1.25 " style="fill: none; stroke-linecap: round; stroke-linejoin: round; stroke: rgb(34, 36, 42); stroke-width: 2px;"/><path transform="rotate(0,15,15)" d="M 15,15 m 0,6.25 l -0,1.875 " style="fill: none; stroke-linecap: round; stroke-linejoin: round; stroke: rgb(34, 36, 42); stroke-width: 1px;"/><path transform="rotate(30,15,15)" d="M 15,15 m 0,6.25 l -0,1.875 " style="fill: none; stroke-linecap: round; stroke-linejoin: round; stroke: rgb(34, 36, 42); stroke-width: 1px;"/><path transform="rotate(60,15,15)" d="M 15,15 m 0,6.25 l -0,1.875 " style="fill: none; stroke-linecap: round; stroke-linejoin: round; stroke: rgb(34, 36, 42); stroke-width: 1px;"/><path transform="rotate(90,15,15)" d="M 15,15 m 0,6.25 l -0,1.875 " style="fill: none; stroke-linecap: round; stroke-linejoin: round; stroke: rgb(34, 36, 42); stroke-width: 1px;"/><path transform="rotate(120,15,15)" d="M 15,15 m 0,6.25 l -0,1.875 " style="fill: none; stroke-linecap: round; stroke-linejoin: round; stroke: rgb(34, 36, 42); stroke-width: 1px;"/><path transform="rotate(150,15,15)" d="M 15,15 m 0,6.25 l -0,1.875 " style="fill: none; stroke-linecap: round; stroke-linejoin: round; stroke: rgb(34, 36, 42); stroke-width: 1px;"/><path transform="rotate(180,15,15)" d="M 15,15 m 0,6.25 l -0,1.875 " style="fill: none; stroke-linecap: round; stroke-linejoin: round; stroke: rgb(34, 36, 42); stroke-width: 1px;"/><path transform="rotate(210,15,15)" d="M 15,15 m 0,6.25 l -0,1.875 " style="fill: none; stroke-linecap: round; stroke-linejoin: round; stroke: rgb(34, 36, 42); stroke-width: 1px;"/><path transform="rotate(240,15,15)" d="M 15,15 m 0,6.25 l -0,1.875 " style="fill: none; stroke-linecap: round; stroke-linejoin: round; stroke: rgb(34, 36, 42); stroke-width: 1px;"/><path transform="rotate(270,15,15)" d="M 15,15 m 0,6.25 l -0,1.875 " style="fill: none; stroke-linecap: round; stroke-linejoin: round; stroke: rgb(34, 36, 42); stroke-width: 1px;"/><path transform="rotate(300,15,15)" d="M 15,15 m 0,6.25 l -0,1.875 " style="fill: none; stroke-linecap: round; stroke-linejoin: round; stroke: rgb(34, 36, 42); stroke-width: 1px;"/><path transform="rotate(330,15,15)" d="M 15,15 m 0,6.25 l -0,1.875 " style="fill: none; stroke-linecap: round; stroke-linejoin: round; stroke: rgb(34, 36, 42); stroke-width: 1px;"/></g><rect class="djs-hit djs-hit-all" x="0" y="0" width="30" height="30" style="fill: none; stroke-opacity: 0; stroke: white; stroke-width: 15px;"/><rect x="-6" y="-6" rx="4" width="42" height="42" class="djs-outline" style="fill: none;"/></g></g><g class="djs-group"><g class="djs-element djs-shape" data-element-id="sid-53CC144C-5431-42D9-A22A-531569BB77A1_label" style="display: block;" transform="matrix(1 0 0 1 563 527)"><g class="djs-visual"><text lineHeight="1.2" class="djs-label" style="font-family: Arial, sans-serif; font-size: 11px; font-weight: normal; fill: rgb(34, 36, 42);"><tspan x="0" y="9.899999999999999">fs Zahlungsfrist</tspan><tspan x="10.036865234375" y="23.099999999999998">abgelaufen</tspan></text></g><rect class="djs-hit djs-hit-all" x="0" y="0" width="75" height="27" style="fill: none; stroke-opacity: 0; stroke: white; stroke-width: 15px;"/><rect x="-6" y="-6" rx="4" width="87" height="39" class="djs-outline" style="fill: none;"/></g></g><g class="djs-group"><g class="djs-element djs-shape" data-element-id="sid-CE2FBB25-D412-422E-B7D3-952E6BBF93F5" style="display: block;" transform="matrix(1 0 0 1 915 470)"><g class="djs-visual"><rect x="0" y="0" width="100" height="80" rx="10" ry="10" style="stroke-linecap: round; stroke-linejoin: round; stroke: rgb(34, 36, 42); stroke-width: 2px; fill: white; fill-opacity: 0.95;"/><text lineHeight="1.2" class="djs-label" style="font-family: Arial, sans-serif; font-size: 12px; font-weight: normal; fill: rgb(34, 36, 42);"><tspan x="22.994140625" y="29.200000000000003">fs Moskau </tspan><tspan x="29.1591796875" y="43.6">Inkasso </tspan><tspan x="17.8095703125" y="58">beauftragen</tspan></text></g><rect class="djs-hit djs-hit-all" x="0" y="0" width="100" height="80" style="fill: none; stroke-opacity: 0; stroke: white; stroke-width: 15px;"/><rect x="-6" y="-6" rx="4" width="112" height="92" class="djs-outline" style="fill: none;"/></g></g><g class="djs-group"><g class="djs-element djs-shape" data-element-id="sid-D1F62AD0-9422-4AF3-8316-B132D0454D79" style="display: block;" transform="matrix(1 0 0 1 1080 490)"><g class="djs-visual"><polygon points="20,0 40,20 20,40 0,20" style="stroke-linecap: round; stroke-linejoin: round; stroke: rgb(34, 36, 42); stroke-width: 2px; fill: white; fill-opacity: 0.95;"/><path d="m 18.400000000000002,8 0,10 -10,0 0,3.9999999999999996 10,0 0,10 3.9999999999999996,0 0,-10 10,0 0,-3.9999999999999996 -10,0 0,-10 -3.9999999999999996,0 z" style="fill: rgb(34, 36, 42); stroke-linecap: round; stroke-linejoin: round; stroke: rgb(34, 36, 42); stroke-width: 1px;"/></g><rect class="djs-hit djs-hit-all" x="0" y="0" width="40" height="40" style="fill: none; stroke-opacity: 0; stroke: white; stroke-width: 15px;"/><rect x="-6" y="-6" rx="4" width="52" height="52" class="djs-outline" style="fill: none;"/></g></g><g class="djs-group"><g class="djs-element djs-shape" data-element-id="sid-0D12B21A-145B-41A1-886B-177B689AF917" style="display: block;" transform="matrix(1 0 0 1 1050 690)"><g class="djs-visual"><rect x="0" y="0" width="100" height="80" rx="10" ry="10" style="stroke-linecap: round; stroke-linejoin: round; stroke: rgb(34, 36, 42); stroke-width: 2px; fill: white; fill-opacity: 0.95;"/><text lineHeight="1.2" class="djs-label" style="font-family: Arial, sans-serif; font-size: 12px; font-weight: normal; fill: rgb(34, 36, 42);"><tspan x="31.3291015625" y="36.4">fs Geld</tspan><tspan x="23.484375" y="50.8">eintreiben</tspan></text></g><rect class="djs-hit djs-hit-all" x="0" y="0" width="100" height="80" style="fill: none; stroke-opacity: 0; stroke: white; stroke-width: 15px;"/><rect x="-6" y="-6" rx="4" width="112" height="92" class="djs-outline" style="fill: none;"/></g></g><g class="djs-group"><g class="djs-element djs-connection" data-element-id="sid-8E6F3C83-425F-4FFA-9FF7-226D9882C43E" style="display: block;"><g class="djs-visual"><path data-corner-radius="5" style="fill: none; stroke-linecap: round; stroke-linejoin: round; stroke: rgb(34, 36, 42); stroke-width: 2px; marker-end: url('#sequenceflow-end-white-hsl_225_10_15_-586j0h8lmh773xn5hhv394md7');" d="M120,225L195,225"/></g><path d="M120,225L195,225" class="djs-hit djs-hit-stroke" style="fill: none; stroke-opacity: 0; stroke: white; stroke-width: 15px;"/><rect x="114" y="219" rx="4" width="87" height="12" class="djs-outline" style="fill: none;"/></g></g><g class="djs-group"><g class="djs-element djs-connection" data-element-id="sid-B5A89C8E-E1A9-4D9C-A287-D5FAA6FD6C3C" style="display: block;"><g class="djs-visual"><path data-corner-radius="5" style="fill: none; stroke-linecap: round; stroke-linejoin: round; stroke: rgb(34, 36, 42); stroke-width: 2px; marker-end: url('#sequenceflow-end-white-hsl_225_10_15_-586j0h8lmh773xn5hhv394md7');" d="M295,225.18450184501845L360,225.42435424354244"/></g><path d="M295,225.18450184501845L360,225.42435424354244" class="djs-hit djs-hit-stroke" style="fill: none; stroke-opacity: 0; stroke: white; stroke-width: 15px;"/><rect x="289" y="219.18450184501845" rx="4" width="77" height="12.239852398523993" class="djs-outline" style="fill: none;"/></g></g><g class="djs-group"><g class="djs-element djs-connection" data-element-id="sid-E80C41EC-A18B-448C-8096-86682BB922A6" style="display: block;"><g class="djs-visual"><path data-corner-radius="5" style="fill: none; stroke-linecap: round; stroke-linejoin: round; stroke: rgb(34, 36, 42); stroke-width: 2px; marker-end: url('#sequenceflow-end-white-hsl_225_10_15_-586j0h8lmh773xn5hhv394md7');" d="M1270,225L1320,225"/></g><path d="M1270,225L1320,225" class="djs-hit djs-hit-stroke" style="fill: none; stroke-opacity: 0; stroke: white; stroke-width: 15px;"/><rect x="1264" y="219" rx="4" width="62" height="12" class="djs-outline" style="fill: none;"/></g></g><g class="djs-group"><g class="djs-element djs-connection" data-element-id="sid-53866D49-D49E-4856-8908-405507A5224C" style="display: block;"><g class="djs-visual"><path data-corner-radius="5" style="fill: none; stroke-linecap: round; stroke-linejoin: round; stroke: rgb(34, 36, 42); stroke-width: 2px; marker-end: url('#sequenceflow-end-white-hsl_225_10_15_-586j0h8lmh773xn5hhv394md7');" d="M400,225.5L1080,225.5"/></g><path d="M400,225.5L1080,225.5" class="djs-hit djs-hit-stroke" style="fill: none; stroke-opacity: 0; stroke: white; stroke-width: 15px;"/><rect x="394" y="219.5" rx="4" width="692" height="12" class="djs-outline" style="fill: none;"/></g></g><g class="djs-group"><g class="djs-element djs-shape" data-element-id="sid-53866D49-D49E-4856-8908-405507A5224C_label" style="display: block;" transform="matrix(1 0 0 1 434 206)"><g class="djs-visual"><text lineHeight="1.2" class="djs-label" style="font-family: Arial, sans-serif; font-size: 11px; font-weight: normal; fill: rgb(34, 36, 42);"><tspan x="19.596435546875" y="9.899999999999999">fs nicht </tspan><tspan x="0" y="23.099999999999998">regresspflichtig</tspan></text></g><rect class="djs-hit djs-hit-all" x="0" y="0" width="74" height="27" style="fill: none; stroke-opacity: 0; stroke: white; stroke-width: 15px;"/><rect x="-6" y="-6" rx="4" width="86" height="39" class="djs-outline" style="fill: none;"/></g></g><g class="djs-group"><g class="djs-element djs-connection" data-element-id="sid-48EC1375-5998-4FFB-A79C-161C069FD36F" style="display: block;"><g class="djs-visual"><path data-corner-radius="5" style="fill: none; stroke-linecap: round; stroke-linejoin: round; stroke: rgb(34, 36, 42); stroke-width: 2px; marker-end: url('#sequenceflow-end-white-hsl_225_10_15_-586j0h8lmh773xn5hhv394md7');" d="M535,320.38461538461536L585,320.0887573964497"/></g><path d="M535,320.38461538461536L585,320.0887573964497" class="djs-hit djs-hit-stroke" style="fill: none; stroke-opacity: 0; stroke: white; stroke-width: 15px;"/><rect x="529" y="314.0887573964497" rx="4" width="62" height="12.295857988165665" class="djs-outline" style="fill: none;"/></g></g><g class="djs-group"><g class="djs-element djs-connection" data-element-id="sid-17ED39FB-0384-4865-B473-A6AC5D29C89D" style="display: block;"><g class="djs-visual"><path data-corner-radius="5" style="fill: none; stroke-linecap: round; stroke-linejoin: round; stroke: rgb(34, 36, 42); stroke-width: 2px; marker-end: url('#sequenceflow-end-white-hsl_225_10_15_-586j0h8lmh773xn5hhv394md7');" d="M380.3968253968254,245L380.2116402116402,280"/></g><path d="M380.3968253968254,245L380.2116402116402,280" class="djs-hit djs-hit-stroke" style="fill: none; stroke-opacity: 0; stroke: white; stroke-width: 15px;"/><rect x="374.2116402116402" y="239" rx="4" width="12.185185185185219" height="47" class="djs-outline" style="fill: none;"/></g></g><g class="djs-group"><g class="djs-element djs-connection" data-element-id="sid-3895E45C-04AB-44E3-AE9B-7A3ED6695929" style="display: block;"><g class="djs-visual"><path data-corner-radius="5" style="fill: none; stroke-linecap: round; stroke-linejoin: round; stroke: rgb(34, 36, 42); stroke-width: 2px; marker-end: url('#sequenceflow-end-white-hsl_225_10_15_-586j0h8lmh773xn5hhv394md7');" d="M430,320.1845018450185L495,320.42435424354244"/></g><path d="M430,320.1845018450185L495,320.42435424354244" class="djs-hit djs-hit-stroke" style="fill: none; stroke-opacity: 0; stroke: white; stroke-width: 15px;"/><rect x="424" y="314.1845018450185" rx="4" width="77" height="12.239852398523965" class="djs-outline" style="fill: none;"/></g></g><g class="djs-group"><g class="djs-element djs-connection" data-element-id="sid-DF23D70A-ABBD-4C9B-B606-B5707F2885C0" style="display: block;"><g class="djs-visual"><path data-corner-radius="5" style="fill: none; stroke-linecap: round; stroke-linejoin: round; stroke: rgb(34, 36, 42); stroke-width: 2px; marker-end: url('#sequenceflow-end-white-hsl_225_10_15_-586j0h8lmh773xn5hhv394md7');" d="M1120,225.418410041841L1170,225.2092050209205"/></g><path d="M1120,225.418410041841L1170,225.2092050209205" class="djs-hit djs-hit-stroke" style="fill: none; stroke-opacity: 0; stroke: white; stroke-width: 15px;"/><rect x="1114" y="219.2092050209205" rx="4" width="62" height="12.209205020920507" class="djs-outline" style="fill: none;"/></g></g><g class="djs-group"><g class="djs-element djs-connection" data-element-id="sid-C8D6FE5B-C92B-472C-BAA6-BE30478543B8" style="display: block;"><g class="djs-visual"><path data-corner-radius="5" style="fill: none; stroke-linecap: round; stroke-linejoin: round; stroke: rgb(34, 36, 42); stroke-width: 2px; marker-end: url('#sequenceflow-end-white-hsl_225_10_15_-586j0h8lmh773xn5hhv394md7');" d="M615,320L660,320"/></g><path d="M615,320L660,320" class="djs-hit djs-hit-stroke" style="fill: none; stroke-opacity: 0; stroke: white; stroke-width: 15px;"/><rect x="609" y="314" rx="4" width="57" height="12" class="djs-outline" style="fill: none;"/></g></g><g class="djs-group"><g class="djs-element djs-connection" data-element-id="sid-5C0CD0E2-8E72-4020-A03C-727F70959F6B" style="display: block;"><g class="djs-visual"><path data-corner-radius="5" style="fill: none; stroke-linecap: round; stroke-linejoin: round; stroke: rgb(34, 36, 42); stroke-width: 2px; marker-end: url('#sequenceflow-end-white-hsl_225_10_15_-586j0h8lmh773xn5hhv394md7');" d="M515.5,340L515.5,415C515.5,417.5,518,420,520.5,420L585,420"/></g><path d="M515.5,340L515.5,420L585,420" class="djs-hit djs-hit-stroke" style="fill: none; stroke-opacity: 0; stroke: white; stroke-width: 15px;"/><rect x="509.5" y="334" rx="4" width="81.5" height="92" class="djs-outline" style="fill: none;"/></g></g><g class="djs-group"><g class="djs-element djs-connection" data-element-id="sid-33AC45FB-DE50-41A0-97E7-1C5A9B7A8944" style="display: block;"><g class="djs-visual"><path data-corner-radius="5" style="fill: none; stroke-linecap: round; stroke-linejoin: round; stroke: rgb(34, 36, 42); stroke-width: 2px; marker-end: url('#sequenceflow-end-white-hsl_225_10_15_-586j0h8lmh773xn5hhv394md7');" d="M615,420L660,420"/></g><path d="M615,420L660,420" class="djs-hit djs-hit-stroke" style="fill: none; stroke-opacity: 0; stroke: white; stroke-width: 15px;"/><rect x="609" y="414" rx="4" width="57" height="12" class="djs-outline" style="fill: none;"/></g></g><g class="djs-group"><g class="djs-element djs-connection" data-element-id="sid-9189430A-F007-433A-BD0F-104DA2A3DB24" style="display: block;"><g class="djs-visual"><path data-corner-radius="5" style="fill: none; stroke-linecap: round; stroke-linejoin: round; stroke: rgb(34, 36, 42); stroke-width: 2px; marker-end: url('#sequenceflow-end-white-hsl_225_10_15_-586j0h8lmh773xn5hhv394md7');" d="M760,420.1845018450185L825,420.42435424354244"/></g><path d="M760,420.1845018450185L825,420.42435424354244" class="djs-hit djs-hit-stroke" style="fill: none; stroke-opacity: 0; stroke: white; stroke-width: 15px;"/><rect x="754" y="414.1845018450185" rx="4" width="77" height="12.239852398523965" class="djs-outline" style="fill: none;"/></g></g><g class="djs-group"><g class="djs-element djs-connection" data-element-id="sid-2FDB17A7-3A54-4E63-A174-AD5A35E3828A" style="display: block;"><g class="djs-visual"><path data-corner-radius="5" style="fill: none; stroke-linecap: round; stroke-linejoin: round; stroke: rgb(34, 36, 42); stroke-width: 2px; marker-end: url('#sequenceflow-end-white-hsl_225_10_15_-586j0h8lmh773xn5hhv394md7');" d="M515.5,340L515.5,505C515.5,507.5,518,510,520.5,510L585,510"/></g><path d="M515.5,340L515.5,510L585,510" class="djs-hit djs-hit-stroke" style="fill: none; stroke-opacity: 0; stroke: white; stroke-width: 15px;"/><rect x="509.5" y="334" rx="4" width="81.5" height="182" class="djs-outline" style="fill: none;"/></g></g><g class="djs-group"><g class="djs-element djs-connection" data-element-id="sid-91FB657C-28DE-4BA7-99C6-1E3FB4C9037C" style="display: block;"><g class="djs-visual"><path data-corner-radius="5" style="fill: none; stroke-linecap: round; stroke-linejoin: round; stroke: rgb(34, 36, 42); stroke-width: 2px; marker-end: url('#sequenceflow-end-white-hsl_225_10_15_-586j0h8lmh773xn5hhv394md7');" d="M615,510L915,510"/></g><path d="M615,510L915,510" class="djs-hit djs-hit-stroke" style="fill: none; stroke-opacity: 0; stroke: white; stroke-width: 15px;"/><rect x="609" y="504" rx="4" width="312" height="12" class="djs-outline" style="fill: none;"/></g></g><g class="djs-group"><g class="djs-element djs-connection" data-element-id="sid-D4443E9C-6B7A-4BF2-AF7E-9788614B4D5F" style="display: block;"><g class="djs-visual"><path data-corner-radius="5" style="fill: none; stroke-linecap: round; stroke-linejoin: round; stroke: rgb(34, 36, 42); stroke-width: 2px; marker-end: url('#sequenceflow-end-white-hsl_225_10_15_-586j0h8lmh773xn5hhv394md7');" d="M865,420.5L960,420.5C962.5,420.5,965,423,965,425.5L965,470"/></g><path d="M865,420.5L965,420.5L965,470" class="djs-hit djs-hit-stroke" style="fill: none; stroke-opacity: 0; stroke: white; stroke-width: 15px;"/><rect x="859" y="414.5" rx="4" width="112" height="61.5" class="djs-outline" style="fill: none;"/></g></g><g class="djs-group"><g class="djs-element djs-shape" data-element-id="sid-D4443E9C-6B7A-4BF2-AF7E-9788614B4D5F_label" style="display: block;" transform="matrix(1 0 0 1 921 401)"><g class="djs-visual"><text lineHeight="1.2" class="djs-label" style="font-family: Arial, sans-serif; font-size: 11px; font-weight: normal; fill: rgb(34, 36, 42);"><tspan x="2.51025390625" y="9.899999999999999">fs Widerspruch </tspan><tspan x="0" y="23.099999999999998">ungerechtfertigt</tspan></text></g><rect class="djs-hit djs-hit-all" x="0" y="0" width="78" height="27" style="fill: none; stroke-opacity: 0; stroke: white; stroke-width: 15px;"/><rect x="-6" y="-6" rx="4" width="90" height="39" class="djs-outline" style="fill: none;"/></g></g><g class="djs-group"><g class="djs-element djs-connection" data-element-id="sid-16CD0E47-EB7A-4802-94B5-717F65560D55" style="display: block;"><g class="djs-visual"><path data-corner-radius="5" style="fill: none; stroke-linecap: round; stroke-linejoin: round; stroke: rgb(34, 36, 42); stroke-width: 2px; marker-end: url('#sequenceflow-end-white-hsl_225_10_15_-586j0h8lmh773xn5hhv394md7');" d="M1100,530L1100,690"/></g><path d="M1100,530L1100,690" class="djs-hit djs-hit-stroke" style="fill: none; stroke-opacity: 0; stroke: white; stroke-width: 15px;"/><rect x="1094" y="524" rx="4" width="12" height="172" class="djs-outline" style="fill: none;"/></g></g><g class="djs-group"><g class="djs-element djs-connection" data-element-id="sid-1EA4D17A-B6FF-4C9A-8794-17297E3CFB7B" style="display: block;"><g class="djs-visual"><path data-corner-radius="5" style="fill: none; stroke-linecap: round; stroke-linejoin: round; stroke: rgb(34, 36, 42); stroke-width: 2px; marker-end: url('#sequenceflow-end-white-hsl_225_10_15_-586j0h8lmh773xn5hhv394md7');" d="M1100.5,490L1100.5,245"/></g><path d="M1100.5,490L1100.5,245" class="djs-hit djs-hit-stroke" style="fill: none; stroke-opacity: 0; stroke: white; stroke-width: 15px;"/><rect x="1094.5" y="239" rx="4" width="12" height="257" class="djs-outline" style="fill: none;"/></g></g><g class="djs-group"><g class="djs-element djs-connection" data-element-id="sid-BFB71A66-74D1-40A7-B416-0373EE47F34F" style="display: block;"><g class="djs-visual"><path data-corner-radius="5" style="fill: none; stroke-linecap: round; stroke-linejoin: round; stroke: rgb(34, 36, 42); stroke-width: 2px; marker-end: url('#sequenceflow-end-white-hsl_225_10_15_-586j0h8lmh773xn5hhv394md7');" d="M760,320L941.5426880913254,320C944.0426880913254,320,948.6733332942496,318.69219610825775,950.8039784971738,317.38439221651555L1080,238.0830334135033"/></g><path d="M760,320L946.5426880913254,320L1080,238.0830334135033" class="djs-hit djs-hit-stroke" style="fill: none; stroke-opacity: 0; stroke: white; stroke-width: 15px;"/><rect x="754" y="232.0830334135033" rx="4" width="332" height="93.9169665864967" class="djs-outline" style="fill: none;"/></g></g><g class="djs-group"><g class="djs-element djs-connection" data-element-id="sid-74913BC9-F94A-426E-9280-93AC0C5C796B" style="display: block;"><g class="djs-visual"><path data-corner-radius="5" style="fill: none; stroke-linecap: round; stroke-linejoin: round; stroke: rgb(34, 36, 42); stroke-width: 2px; marker-end: url('#sequenceflow-end-white-hsl_225_10_15_-586j0h8lmh773xn5hhv394md7');" d="M845.5,400L845.5,360C845.5,357.5,848,355,850.5,355L1021.4026477162124,355C1023.9026477162124,355,1027.6442245647888,352.83009517971897,1028.8858014133655,350.66019035943793L1089.3424836329432,245"/></g><path d="M845.5,400L845.5,355L1026.4026477162124,355L1089.3424836329432,245" class="djs-hit djs-hit-stroke" style="fill: none; stroke-opacity: 0; stroke: white; stroke-width: 15px;"/><rect x="839.5" y="239" rx="4" width="255.84248363294319" height="167" class="djs-outline" style="fill: none;"/></g></g><g class="djs-group"><g class="djs-element djs-shape" data-element-id="sid-74913BC9-F94A-426E-9280-93AC0C5C796B_label" style="display: block;" transform="matrix(1 0 0 1 789 309)"><g class="djs-visual"><text lineHeight="1.2" class="djs-label" style="font-family: Arial, sans-serif; font-size: 11px; font-weight: normal; fill: rgb(34, 36, 42);"><tspan x="0" y="9.899999999999999">fs Widerspruch</tspan><tspan x="3.607421875" y="23.099999999999998">gerechtfertigt</tspan></text></g><rect class="djs-hit djs-hit-all" x="0" y="0" width="73" height="27" style="fill: none; stroke-opacity: 0; stroke: white; stroke-width: 15px;"/><rect x="-6" y="-6" rx="4" width="85" height="39" class="djs-outline" style="fill: none;"/></g></g><g class="djs-group"><g class="djs-element djs-connection" data-element-id="sid-2AD9ADAC-87BB-4199-8DE9-8FDAF1AA8C1C" style="display: block;"><g class="djs-visual"><path data-corner-radius="5" style="fill: none; stroke-linecap: round; stroke-linejoin: round; stroke: rgb(34, 36, 42); stroke-width: 2px; marker-end: url('#sequenceflow-end-white-hsl_225_10_15_-586j0h8lmh773xn5hhv394md7');" d="M1015,510.1845018450185L1080,510.42435424354244"/></g><path d="M1015,510.1845018450185L1080,510.42435424354244" class="djs-hit djs-hit-stroke" style="fill: none; stroke-opacity: 0; stroke: white; stroke-width: 15px;"/><rect x="1009" y="504.1845018450185" rx="4" width="77" height="12.239852398523965" class="djs-outline" style="fill: none;"/></g></g></g></g></svg>