<?xml version="1.0" encoding="utf-8"?>
<!-- created with bpmn-js / http://bpmn.io -->
<!DOCTYPE svg PUBLIC "-//W3C//DTD SVG 1.1//EN" "http://www.w3.org/Graphics/SVG/1.1/DTD/svg11.dtd">
<svg xmlns="http://www.w3.org/2000/svg" xmlns:xlink="http://www.w3.org/1999/xlink" width="1656" height="893" viewBox="14 54 1656 893" version="1.1"><defs><marker id="sequenceflow-end-white-hsl_225_10_15_-5dhdh8my7pu33k5fvo0ndvu42" viewBox="0 0 20 20" refX="11" refY="10" markerWidth="10" markerHeight="10" orient="auto"><path d="M 1 5 L 11 10 L 1 15 Z" style="stroke-linecap: round; stroke-linejoin: round; stroke: rgb(34, 36, 42); stroke-width: 1px; fill: rgb(34, 36, 42);"/></marker></defs><g class="djs-group"><g class="djs-element djs-shape" data-element-id="sid-917C0426-C5A3-4B2E-AC8E-8E8AF85D0BDF" style="display: block;" transform="matrix(1 0 0 1 20 60)"><g class="djs-visual"><rect x="0" y="0" width="1644" height="881" rx="0" ry="0" style="stroke-linecap: round; stroke-linejoin: round; stroke: rgb(34, 36, 42); stroke-width: 1.5px; fill: white; fill-opacity: 0.95;"/><path style="fill: none; stroke-linecap: round; stroke-linejoin: round; stroke: rgb(34, 36, 42); stroke-width: 1.5px;" d="M30,0L30,881"/><text lineHeight="1.2" class="djs-label" style="font-family: Arial, sans-serif; font-size: 12px; font-weight: normal; fill: rgb(34, 36, 42);" transform="matrix(-1.83697e-16 -1 1 -1.83697e-16 0 881)"><tspan x="440.5" y="18.6"/></text></g><rect class="djs-hit djs-hit-all" x="0" y="0" width="1644" height="881" style="fill: none; stroke-opacity: 0; stroke: white; stroke-width: 15px;"/><rect x="-6" y="-6" rx="4" width="1656" height="893" class="djs-outline" style="fill: none;"/></g><g class="djs-children"><g class="djs-group"><g class="djs-element djs-shape" data-element-id="sid-AE57C9A1-8617-4471-9E0A-7AF0FE368E88" style="display: block;" transform="matrix(1 0 0 1 50 60)"><g class="djs-visual"><rect x="0" y="0" width="1614" height="881" rx="0" ry="0" style="stroke-linecap: round; stroke-linejoin: round; stroke: rgb(34, 36, 42); stroke-width: 1.5px; fill: white; fill-opacity: 0.35;"/><text lineHeight="1.2" class="djs-label" style="font-family: Arial, sans-serif; font-size: 12px; font-weight: normal; fill: rgb(34, 36, 42);" transform="matrix(-1.83697e-16 -1 1 -1.83697e-16 0 881)"><tspan x="394.9794921875" y="18.6">MA Versicherung</tspan></text></g><rect class="djs-hit djs-hit-all" x="0" y="0" width="1614" height="881" style="fill: none; stroke-opacity: 0; stroke: white; stroke-width: 15px;"/><rect x="-6" y="-6" rx="4" width="1626" height="893" class="djs-outline" style="fill: none;"/></g></g><g class="djs-group"><g class="djs-element djs-shape" data-element-id="sid-B3849273-D490-4FA2-8382-68A71558DB2A" style="display: block;" transform="matrix(1 0 0 1 142 460)"><g class="djs-visual"><circle cx="15" cy="15" r="15" style="stroke-linecap: round; stroke-linejoin: round; stroke: rgb(34, 36, 42); stroke-width: 2px; fill: white; fill-opacity: 0.95;"/></g><rect class="djs-hit djs-hit-all" x="0" y="0" width="30" height="30" style="fill: none; stroke-opacity: 0; stroke: white; stroke-width: 15px;"/><rect x="-6" y="-6" rx="4" width="42" height="42" class="djs-outline" style="fill: none;"/></g></g><g class="djs-group"><g class="djs-element djs-shape" data-element-id="sid-B3849273-D490-4FA2-8382-68A71558DB2A_label" style="display: block;" transform="matrix(1 0 0 1 114 492)"><g class="djs-visual"><text lineHeight="1.2" class="djs-label" style="font-family: Arial, sans-serif; font-size: 11px; font-weight: normal; fill: rgb(34, 36, 42);"><tspan x="16.0859375" y="9.899999999999999">Zumeldung</tspan><tspan x="0" y="23.099999999999998">Regressanspruch</tspan></text></g><rect class="djs-hit djs-hit-all" x="0" y="0" width="87" height="27" style="fill: none; stroke-opacity: 0; stroke: white; stroke-width: 15px;"/><rect x="-6" y="-6" rx="4" width="99" height="39" class="djs-outline" style="fill: none;"/></g></g><g class="djs-group"><g class="djs-element djs-shape" data-element-id="sid-38FFF280-9E40-4E21-B371-74D7CA8F4CF8" style="display: block;" transform="matrix(1 0 0 1 238 435)"><g class="djs-visual"><rect x="0" y="0" width="100" height="80" rx="10" ry="10" style="stroke-linecap: round; stroke-linejoin: round; stroke: rgb(34, 36, 42); stroke-width: 2px; fill: white; fill-opacity: 0.95;"/><text lineHeight="1.2" class="djs-label" style="font-family: Arial, sans-serif; font-size: 12px; font-weight: normal; fill: rgb(34, 36, 42);"><tspan x="8.810546875" y="36.4">Regeressanspr</tspan><tspan x="21.4833984375" y="50.8">uch prüfen</tspan></text></g><rect class="djs-hit djs-hit-all" x="0" y="0" width="100" height="80" style="fill: none; stroke-opacity: 0; stroke: white; stroke-width: 15px;"/><rect x="-6" y="-6" rx="4" width="112" height="92" class="djs-outline" style="fill: none;"/></g></g><g class="djs-group"><g class="djs-element djs-shape" data-element-id="sid-D0E21260-AF6E-4AB0-BA20-09FD03C51376" style="display: block;" transform="matrix(1 0 0 1 388 455)"><g class="djs-visual"><polygon points="20,0 40,20 20,40 0,20" style="stroke-linecap: round; stroke-linejoin: round; stroke: rgb(34, 36, 42); stroke-width: 2px; fill: white; fill-opacity: 0.95;"/><path d="m 12.8,12 5.942857142857143,7.771428571428571 -5.942857142857143,7.771428571428571 2.742857142857143,0 4.571428571428571,-5.971382857142857 4.571428571428571,5.971382857142857 2.742857142857143,0 -5.942857142857143,-7.771428571428571 5.942857142857143,-7.771428571428571 -2.742857142857143,0 -4.571428571428571,5.971382857142857 -4.571428571428571,-5.971382857142857 -2.742857142857143,0 z" style="fill: rgb(34, 36, 42); stroke-linecap: round; stroke-linejoin: round; stroke: rgb(34, 36, 42); stroke-width: 1px;"/></g><rect class="djs-hit djs-hit-all" x="0" y="0" width="40" height="40" style="fill: none; stroke-opacity: 0; stroke: white; stroke-width: 15px;"/><rect x="-6" y="-6" rx="4" width="52" height="52" class="djs-outline" style="fill: none;"/></g></g><g class="djs-group"><g class="djs-element djs-shape" data-element-id="sid-D0E21260-AF6E-4AB0-BA20-09FD03C51376_label" style="display: block;" transform="matrix(1 0 0 1 367 505)"><g class="djs-visual"><text lineHeight="1.2" class="djs-label" style="font-family: Arial, sans-serif; font-size: 11px; font-weight: normal; fill: rgb(34, 36, 42);"><tspan x="0" y="9.899999999999999">Rechtsanspruch</tspan></text></g><rect class="djs-hit djs-hit-all" x="0" y="0" width="80" height="14" style="fill: none; stroke-opacity: 0; stroke: white; stroke-width: 15px;"/><rect x="-6" y="-6" rx="4" width="92" height="26" class="djs-outline" style="fill: none;"/></g></g><g class="djs-group"><g class="djs-element djs-shape" data-element-id="sid-6F640816-0886-43BE-AE0F-FAE501D10937" style="display: block;" transform="matrix(1 0 0 1 358 319)"><g class="djs-visual"><rect x="0" y="0" width="100" height="80" rx="10" ry="10" style="stroke-linecap: round; stroke-linejoin: round; stroke: rgb(34, 36, 42); stroke-width: 2px; fill: white; fill-opacity: 0.95;"/><text lineHeight="1.2" class="djs-label" style="font-family: Arial, sans-serif; font-size: 12px; font-weight: normal; fill: rgb(34, 36, 42);"><tspan x="27.4833984375" y="36.4">Vorgang </tspan><tspan x="24.158203125" y="50.8">schließen</tspan></text></g><rect class="djs-hit djs-hit-all" x="0" y="0" width="100" height="80" style="fill: none; stroke-opacity: 0; stroke: white; stroke-width: 15px;"/><rect x="-6" y="-6" rx="4" width="112" height="92" class="djs-outline" style="fill: none;"/></g></g><g class="djs-group"><g class="djs-element djs-shape" data-element-id="sid-5EC4488E-028B-46F2-9757-87F7EFD8D71B" style="display: block;" transform="matrix(1 0 0 1 486 435)"><g class="djs-visual"><rect x="0" y="0" width="100" height="80" rx="10" ry="10" style="stroke-linecap: round; stroke-linejoin: round; stroke: rgb(34, 36, 42); stroke-width: 2px; fill: white; fill-opacity: 0.95;"/><text lineHeight="1.2" class="djs-label" style="font-family: Arial, sans-serif; font-size: 12px; font-weight: normal; fill: rgb(34, 36, 42);"><tspan x="11.6396484375" y="29.200000000000003">Zahlungsanfor</tspan><tspan x="31.154296875" y="43.6">derung </tspan><tspan x="22.3173828125" y="58">versenden</tspan></text></g><rect class="djs-hit djs-hit-all" x="0" y="0" width="100" height="80" style="fill: none; stroke-opacity: 0; stroke: white; stroke-width: 15px;"/><rect x="-6" y="-6" rx="4" width="112" height="92" class="djs-outline" style="fill: none;"/></g></g><g class="djs-group"><g class="djs-element djs-shape" data-element-id="sid-28D22976-0236-4FCD-821B-48204B28D7DC" style="display: block;" transform="matrix(1 0 0 1 503 345)"><g class="djs-visual"><circle cx="14" cy="14" r="14" style="stroke-linecap: round; stroke-linejoin: round; stroke: rgb(34, 36, 42); stroke-width: 4px; fill: white; fill-opacity: 0.95;"/></g><rect class="djs-hit djs-hit-all" x="0" y="0" width="28" height="28" style="fill: none; stroke-opacity: 0; stroke: white; stroke-width: 15px;"/><rect x="-6" y="-6" rx="4" width="40" height="40" class="djs-outline" style="fill: none;"/></g></g><g class="djs-group"><g class="djs-element djs-shape" data-element-id="sid-B1812FB4-AD36-4474-8934-EF4B0CD60B2F" style="display: block;" transform="matrix(1 0 0 1 631 435)"><g class="djs-visual"><rect x="0" y="0" width="100" height="80" rx="10" ry="10" style="stroke-linecap: round; stroke-linejoin: round; stroke: rgb(34, 36, 42); stroke-width: 2px; fill: white; fill-opacity: 0.95;"/><text lineHeight="1.2" class="djs-label" style="font-family: Arial, sans-serif; font-size: 12px; font-weight: normal; fill: rgb(34, 36, 42);"><tspan x="10.0810546875" y="14.799999999999999">Zahlungsauffor</tspan><tspan x="12.96875" y="29.199999999999996">derung an VN </tspan><tspan x="40.826171875" y="43.599999999999994">auf </tspan><tspan x="11.6533203125" y="57.99999999999999">Wiedervorlage </tspan><tspan x="35.15625" y="72.39999999999999">legen</tspan></text></g><rect class="djs-hit djs-hit-all" x="0" y="0" width="100" height="80" style="fill: none; stroke-opacity: 0; stroke: white; stroke-width: 15px;"/><rect x="-6" y="-6" rx="4" width="112" height="92" class="djs-outline" style="fill: none;"/></g></g><g class="djs-group"><g class="djs-element djs-shape" data-element-id="sid-D850B98F-3671-492B-AD77-55FD30201DCA" style="display: block;" transform="matrix(1 0 0 1 779 455)"><g class="djs-visual"><polygon points="20,0 40,20 20,40 0,20" style="stroke-linecap: round; stroke-linejoin: round; stroke: rgb(34, 36, 42); stroke-width: 2px; fill: white; fill-opacity: 0.95;"/><circle cx="20" cy="20" r="12" style="stroke-linecap: round; stroke-linejoin: round; stroke: rgb(34, 36, 42); stroke-width: 1px; fill: none;"/><circle cx="20" cy="20" r="10" style="stroke-linecap: round; stroke-linejoin: round; stroke: rgb(34, 36, 42); stroke-width: 1px; fill: none;"/><path d="m 14.399999999999999,17.6 5.890909090909091,-3.9272727272727272 5.890909090909091,3.9272727272727272 -1.9636363636363636,7.8545454545454545 -7.8545454545454545,0 z" style="fill: none; stroke-linecap: round; stroke-linejoin: round; stroke: rgb(34, 36, 42); stroke-width: 2px;"/></g><rect class="djs-hit djs-hit-all" x="0" y="0" width="40" height="40" style="fill: none; stroke-opacity: 0; stroke: white; stroke-width: 15px;"/><rect x="-6" y="-6" rx="4" width="52" height="52" class="djs-outline" style="fill: none;"/></g></g><g class="djs-group"><g class="djs-element djs-shape" data-element-id="sid-15B47A54-AAB5-4AA9-BDD0-C808EEB479A3" style="display: block;" transform="matrix(1 0 0 1 1171 333)"><g class="djs-visual"><rect x="0" y="0" width="100" height="80" rx="10" ry="10" style="stroke-linecap: round; stroke-linejoin: round; stroke: rgb(34, 36, 42); stroke-width: 2px; fill: white; fill-opacity: 0.95;"/><text lineHeight="1.2" class="djs-label" style="font-family: Arial, sans-serif; font-size: 12px; font-weight: normal; fill: rgb(34, 36, 42);"><tspan x="20.1474609375" y="36.4">Einzahlung </tspan><tspan x="22.3173828125" y="50.8">verbuchen</tspan></text></g><rect class="djs-hit djs-hit-all" x="0" y="0" width="100" height="80" style="fill: none; stroke-opacity: 0; stroke: white; stroke-width: 15px;"/><rect x="-6" y="-6" rx="4" width="112" height="92" class="djs-outline" style="fill: none;"/></g></g><g class="djs-group"><g class="djs-element djs-shape" data-element-id="sid-B218C53E-5A19-4E98-9DFE-4905D8B18188" style="display: block;" transform="matrix(1 0 0 1 1476 359)"><g class="djs-visual"><circle cx="14" cy="14" r="14" style="stroke-linecap: round; stroke-linejoin: round; stroke: rgb(34, 36, 42); stroke-width: 4px; fill: white; fill-opacity: 0.95;"/></g><rect class="djs-hit djs-hit-all" x="0" y="0" width="28" height="28" style="fill: none; stroke-opacity: 0; stroke: white; stroke-width: 15px;"/><rect x="-6" y="-6" rx="4" width="40" height="40" class="djs-outline" style="fill: none;"/></g></g><g class="djs-group"><g class="djs-element djs-shape" data-element-id="sid-73090625-116B-4C34-BE88-AE7731DE833B" style="display: block;" transform="matrix(1 0 0 1 866 460)"><g class="djs-visual"><circle cx="15" cy="15" r="15" style="stroke-linecap: round; stroke-linejoin: round; stroke: rgb(34, 36, 42); stroke-width: 1.5px; fill: white; fill-opacity: 0.95;"/><circle cx="15" cy="15" r="12" style="stroke-linecap: round; stroke-linejoin: round; stroke: rgb(34, 36, 42); stroke-width: 1.5px; fill: none;"/><path d="M 8.75,7.083333333333334 l 12.083333333333334,0 l 0,15 l -12.083333333333334,0 Z M 10.416666666666668,9.583333333333334 l 8.75,0 M 10.416666666666668,12.083333333333334 l 8.75,0 M 10.416666666666668,14.583333333333334 l 8.75,0 M 10.416666666666668,17.083333333333336 l 8.75,0 M 10.416666666666668,19.583333333333336 l 8.75,0 M 10.416666666666668,22.083333333333336 l 8.75,0 " style="fill: none; stroke-linecap: round; stroke-linejoin: round; stroke: rgb(34, 36, 42); stroke-width: 1px;"/></g><rect class="djs-hit djs-hit-all" x="0" y="0" width="30" height="30" style="fill: none; stroke-opacity: 0; stroke: white; stroke-width: 15px;"/><rect x="-6" y="-6" rx="4" width="42" height="42" class="djs-outline" style="fill: none;"/></g></g><g class="djs-group"><g class="djs-element djs-shape" data-element-id="sid-73090625-116B-4C34-BE88-AE7731DE833B_label" style="display: block;" transform="matrix(1 0 0 1 839 492)"><g class="djs-visual"><text lineHeight="1.2" class="djs-label" style="font-family: Arial, sans-serif; font-size: 11px; font-weight: normal; fill: rgb(34, 36, 42);"><tspan x="0" y="9.899999999999999">Zahlung bestätigt</tspan></text></g><rect class="djs-hit djs-hit-all" x="0" y="0" width="85" height="14" style="fill: none; stroke-opacity: 0; stroke: white; stroke-width: 15px;"/><rect x="-6" y="-6" rx="4" width="97" height="26" class="djs-outline" style="fill: none;"/></g></g><g class="djs-group"><g class="djs-element djs-shape" data-element-id="sid-9A51E16E-0FD0-4D17-A991-541601FAB149" style="display: block;" transform="matrix(1 0 0 1 864 564)"><g class="djs-visual"><circle cx="15" cy="15" r="15" style="stroke-linecap: round; stroke-linejoin: round; stroke: rgb(34, 36, 42); stroke-width: 1.5px; fill: white; fill-opacity: 0.95;"/><circle cx="15" cy="15" r="12" style="stroke-linecap: round; stroke-linejoin: round; stroke: rgb(34, 36, 42); stroke-width: 1.5px; fill: none;"/><path d="m 7.05,9.45 l 0,10.5 l 15.75,0 l 0,-10.5 z l 7.875,4.5 l 7.875,-4.5" style="fill: white; stroke-linecap: round; stroke-linejoin: round; stroke: rgb(34, 36, 42); stroke-width: 1px;"/></g><rect class="djs-hit djs-hit-all" x="0" y="0" width="30" height="30" style="fill: none; stroke-opacity: 0; stroke: white; stroke-width: 15px;"/><rect x="-6" y="-6" rx="4" width="42" height="42" class="djs-outline" style="fill: none;"/></g></g><g class="djs-group"><g class="djs-element djs-shape" data-element-id="sid-9A51E16E-0FD0-4D17-A991-541601FAB149_label" style="display: block;" transform="matrix(1 0 0 1 849 596)"><g class="djs-visual"><text lineHeight="1.2" class="djs-label" style="font-family: Arial, sans-serif; font-size: 11px; font-weight: normal; fill: rgb(34, 36, 42);"><tspan x="0" y="9.899999999999999">Widerspruch</tspan></text></g><rect class="djs-hit djs-hit-all" x="0" y="0" width="61" height="14" style="fill: none; stroke-opacity: 0; stroke: white; stroke-width: 15px;"/><rect x="-6" y="-6" rx="4" width="73" height="26" class="djs-outline" style="fill: none;"/></g></g><g class="djs-group"><g class="djs-element djs-shape" data-element-id="sid-646780AA-08DA-4564-9726-14B089A29AE5" style="display: block;" transform="matrix(1 0 0 1 1059 539)"><g class="djs-visual"><rect x="0" y="0" width="100" height="80" rx="10" ry="10" style="stroke-linecap: round; stroke-linejoin: round; stroke: rgb(34, 36, 42); stroke-width: 2px; fill: white; fill-opacity: 0.95;"/><text lineHeight="1.2" class="djs-label" style="font-family: Arial, sans-serif; font-size: 12px; font-weight: normal; fill: rgb(34, 36, 42);"><tspan x="16.66015625" y="36.4">Widerspruch </tspan><tspan x="32.82421875" y="50.8">prüfen</tspan></text></g><rect class="djs-hit djs-hit-all" x="0" y="0" width="100" height="80" style="fill: none; stroke-opacity: 0; stroke: white; stroke-width: 15px;"/><rect x="-6" y="-6" rx="4" width="112" height="92" class="djs-outline" style="fill: none;"/></g></g><g class="djs-group"><g class="djs-element djs-shape" data-element-id="sid-DFA9A657-4E0F-4660-B12A-A7073EF52BEA" style="display: block;" transform="matrix(1 0 0 1 1328 559)"><g class="djs-visual"><polygon points="20,0 40,20 20,40 0,20" style="stroke-linecap: round; stroke-linejoin: round; stroke: rgb(34, 36, 42); stroke-width: 2px; fill: white; fill-opacity: 0.95;"/><path d="m 12.8,12 5.942857142857143,7.771428571428571 -5.942857142857143,7.771428571428571 2.742857142857143,0 4.571428571428571,-5.971382857142857 4.571428571428571,5.971382857142857 2.742857142857143,0 -5.942857142857143,-7.771428571428571 5.942857142857143,-7.771428571428571 -2.742857142857143,0 -4.571428571428571,5.971382857142857 -4.571428571428571,-5.971382857142857 -2.742857142857143,0 z" style="fill: rgb(34, 36, 42); stroke-linecap: round; stroke-linejoin: round; stroke: rgb(34, 36, 42); stroke-width: 1px;"/></g><rect class="djs-hit djs-hit-all" x="0" y="0" width="40" height="40" style="fill: none; stroke-opacity: 0; stroke: white; stroke-width: 15px;"/><rect x="-6" y="-6" rx="4" width="52" height="52" class="djs-outline" style="fill: none;"/></g></g><g class="djs-group"><g class="djs-element djs-shape" data-element-id="sid-DFA9A657-4E0F-4660-B12A-A7073EF52BEA_label" style="display: block;" transform="matrix(1 0 0 1 1327 608)"><g class="djs-visual"><text lineHeight="1.2" class="djs-label" style="font-family: Arial, sans-serif; font-size: 11px; font-weight: normal; fill: rgb(34, 36, 42);"><tspan x="2.197265625" y="9.899999999999999">Widerspruch</tspan><tspan x="0" y="23.099999999999998">gerechtfertigt</tspan></text></g><rect class="djs-hit djs-hit-all" x="0" y="0" width="66" height="27" style="fill: none; stroke-opacity: 0; stroke: white; stroke-width: 15px;"/><rect x="-6" y="-6" rx="4" width="78" height="39" class="djs-outline" style="fill: none;"/></g></g><g class="djs-group"><g class="djs-element djs-shape" data-element-id="sid-056778ED-BC2B-4B05-938E-1582A0AFBAF6" style="display: block;" transform="matrix(1 0 0 1 1476 333)"><g class="djs-visual"><rect x="0" y="0" width="100" height="80" rx="10" ry="10" style="stroke-linecap: round; stroke-linejoin: round; stroke: rgb(34, 36, 42); stroke-width: 2px; fill: white; fill-opacity: 0.95;"/><text lineHeight="1.2" class="djs-label" style="font-family: Arial, sans-serif; font-size: 12px; font-weight: normal; fill: rgb(34, 36, 42);"><tspan x="27.4833984375" y="36.4">Vorgang </tspan><tspan x="24.158203125" y="50.8">schließen</tspan></text></g><rect class="djs-hit djs-hit-all" x="0" y="0" width="100" height="80" style="fill: none; stroke-opacity: 0; stroke: white; stroke-width: 15px;"/><rect x="-6" y="-6" rx="4" width="112" height="92" class="djs-outline" style="fill: none;"/></g></g><g class="djs-group"><g class="djs-element djs-shape" data-element-id="sid-ED959B47-3AF5-4936-A203-371726B46242" style="display: block;" transform="matrix(1 0 0 1 1621 359)"><g class="djs-visual"><circle cx="14" cy="14" r="14" style="stroke-linecap: round; stroke-linejoin: round; stroke: rgb(34, 36, 42); stroke-width: 4px; fill: white; fill-opacity: 0.95;"/></g><rect class="djs-hit djs-hit-all" x="0" y="0" width="28" height="28" style="fill: none; stroke-opacity: 0; stroke: white; stroke-width: 15px;"/><rect x="-6" y="-6" rx="4" width="40" height="40" class="djs-outline" style="fill: none;"/></g></g><g class="djs-group"><g class="djs-element djs-shape" data-element-id="sid-0CBFCE36-89BF-4D0E-BBBD-A4CEE9AD38F1" style="display: block;" transform="matrix(1 0 0 1 1499 638)"><g class="djs-visual"><rect x="0" y="0" width="100" height="80" rx="10" ry="10" style="stroke-linecap: round; stroke-linejoin: round; stroke: rgb(34, 36, 42); stroke-width: 2px; fill: white; fill-opacity: 0.95;"/><text lineHeight="1.2" class="djs-label" style="font-family: Arial, sans-serif; font-size: 12px; font-weight: normal; fill: rgb(34, 36, 42);"><tspan x="11.150390625" y="36.4">an Inkasso-DL </tspan><tspan x="29.8154296875" y="50.8">ageben</tspan></text></g><rect class="djs-hit djs-hit-all" x="0" y="0" width="100" height="80" style="fill: none; stroke-opacity: 0; stroke: white; stroke-width: 15px;"/><rect x="-6" y="-6" rx="4" width="112" height="92" class="djs-outline" style="fill: none;"/></g></g><g class="djs-group"><g class="djs-element djs-shape" data-element-id="sid-5687144C-903F-45E8-9338-0942A9BA4B4D" style="display: block;" transform="matrix(1 0 0 1 1624 664)"><g class="djs-visual"><circle cx="14" cy="14" r="14" style="stroke-linecap: round; stroke-linejoin: round; stroke: rgb(34, 36, 42); stroke-width: 4px; fill: white; fill-opacity: 0.95;"/></g><rect class="djs-hit djs-hit-all" x="0" y="0" width="28" height="28" style="fill: none; stroke-opacity: 0; stroke: white; stroke-width: 15px;"/><rect x="-6" y="-6" rx="4" width="40" height="40" class="djs-outline" style="fill: none;"/></g></g><g class="djs-group"><g class="djs-element djs-shape" data-element-id="sid-4C7109C9-41C6-4D0F-B16E-D3369DC0C6E4" style="display: block;" transform="matrix(1 0 0 1 864 663)"><g class="djs-visual"><circle cx="15" cy="15" r="15" style="stroke-linecap: round; stroke-linejoin: round; stroke: rgb(34, 36, 42); stroke-width: 1.5px; fill: white; fill-opacity: 0.95;"/><circle cx="15" cy="15" r="12" style="stroke-linecap: round; stroke-linejoin: round; stroke: rgb(34, 36, 42); stroke-width: 1.5px; fill: none;"/><circle cx="15" cy="15" r="9" style="stroke-linecap: round; stroke-linejoin: round; stroke: rgb(34, 36, 42); stroke-width: 2px; fill: white;"/><path d="M 15,15 l 1.875,-6.25 m -1.875,6.25 l 4.375,1.25 " style="fill: none; stroke-linecap: round; stroke-linejoin: round; stroke: rgb(34, 36, 42); stroke-width: 2px;"/><path transform="rotate(0,15,15)" d="M 15,15 m 0,6.25 l -0,1.875 " style="fill: none; stroke-linecap: round; stroke-linejoin: round; stroke: rgb(34, 36, 42); stroke-width: 1px;"/><path transform="rotate(30,15,15)" d="M 15,15 m 0,6.25 l -0,1.875 " style="fill: none; stroke-linecap: round; stroke-linejoin: round; stroke: rgb(34, 36, 42); stroke-width: 1px;"/><path transform="rotate(60,15,15)" d="M 15,15 m 0,6.25 l -0,1.875 " style="fill: none; stroke-linecap: round; stroke-linejoin: round; stroke: rgb(34, 36, 42); stroke-width: 1px;"/><path transform="rotate(90,15,15)" d="M 15,15 m 0,6.25 l -0,1.875 " style="fill: none; stroke-linecap: round; stroke-linejoin: round; stroke: rgb(34, 36, 42); stroke-width: 1px;"/><path transform="rotate(120,15,15)" d="M 15,15 m 0,6.25 l -0,1.875 " style="fill: none; stroke-linecap: round; stroke-linejoin: round; stroke: rgb(34, 36, 42); stroke-width: 1px;"/><path transform="rotate(150,15,15)" d="M 15,15 m 0,6.25 l -0,1.875 " style="fill: none; stroke-linecap: round; stroke-linejoin: round; stroke: rgb(34, 36, 42); stroke-width: 1px;"/><path transform="rotate(180,15,15)" d="M 15,15 m 0,6.25 l -0,1.875 " style="fill: none; stroke-linecap: round; stroke-linejoin: round; stroke: rgb(34, 36, 42); stroke-width: 1px;"/><path transform="rotate(210,15,15)" d="M 15,15 m 0,6.25 l -0,1.875 " style="fill: none; stroke-linecap: round; stroke-linejoin: round; stroke: rgb(34, 36, 42); stroke-width: 1px;"/><path transform="rotate(240,15,15)" d="M 15,15 m 0,6.25 l -0,1.875 " style="fill: none; stroke-linecap: round; stroke-linejoin: round; stroke: rgb(34, 36, 42); stroke-width: 1px;"/><path transform="rotate(270,15,15)" d="M 15,15 m 0,6.25 l -0,1.875 " style="fill: none; stroke-linecap: round; stroke-linejoin: round; stroke: rgb(34, 36, 42); stroke-width: 1px;"/><path transform="rotate(300,15,15)" d="M 15,15 m 0,6.25 l -0,1.875 " style="fill: none; stroke-linecap: round; stroke-linejoin: round; stroke: rgb(34, 36, 42); stroke-width: 1px;"/><path transform="rotate(330,15,15)" d="M 15,15 m 0,6.25 l -0,1.875 " style="fill: none; stroke-linecap: round; stroke-linejoin: round; stroke: rgb(34, 36, 42); stroke-width: 1px;"/></g><rect class="djs-hit djs-hit-all" x="0" y="0" width="30" height="30" style="fill: none; stroke-opacity: 0; stroke: white; stroke-width: 15px;"/><rect x="-6" y="-6" rx="4" width="42" height="42" class="djs-outline" style="fill: none;"/></g></g><g class="djs-group"><g class="djs-element djs-shape" data-element-id="sid-4C7109C9-41C6-4D0F-B16E-D3369DC0C6E4_label" style="display: block;" transform="matrix(1 0 0 1 835 695)"><g class="djs-visual"><text lineHeight="1.2" class="djs-label" style="font-family: Arial, sans-serif; font-size: 11px; font-weight: normal; fill: rgb(34, 36, 42);"><tspan x="0" y="9.899999999999999">Wiedervorlagefrist</tspan><tspan x="10.04150390625" y="23.099999999999998">ist abgelaufen</tspan></text></g><rect class="djs-hit djs-hit-all" x="0" y="0" width="89" height="27" style="fill: none; stroke-opacity: 0; stroke: white; stroke-width: 15px;"/><rect x="-6" y="-6" rx="4" width="101" height="39" class="djs-outline" style="fill: none;"/></g></g><g class="djs-group"><g class="djs-element djs-shape" data-element-id="sid-ED39D5FB-CCFD-4323-BA1E-FB9D294BD11B" style="display: block;" transform="matrix(1 0 0 1 1336 353)"><g class="djs-visual"><polygon points="20,0 40,20 20,40 0,20" style="stroke-linecap: round; stroke-linejoin: round; stroke: rgb(34, 36, 42); stroke-width: 2px; fill: white; fill-opacity: 0.95;"/><path d="m 12.8,12 5.942857142857143,7.771428571428571 -5.942857142857143,7.771428571428571 2.742857142857143,0 4.571428571428571,-5.971382857142857 4.571428571428571,5.971382857142857 2.742857142857143,0 -5.942857142857143,-7.771428571428571 5.942857142857143,-7.771428571428571 -2.742857142857143,0 -4.571428571428571,5.971382857142857 -4.571428571428571,-5.971382857142857 -2.742857142857143,0 z" style="fill: rgb(34, 36, 42); stroke-linecap: round; stroke-linejoin: round; stroke: rgb(34, 36, 42); stroke-width: 1px;"/></g><rect class="djs-hit djs-hit-all" x="0" y="0" width="40" height="40" style="fill: none; stroke-opacity: 0; stroke: white; stroke-width: 15px;"/><rect x="-6" y="-6" rx="4" width="52" height="52" class="djs-outline" style="fill: none;"/></g></g><g class="djs-group"><g class="djs-element djs-connection" data-element-id="sid-A8F6BECD-9C91-4BF8-9035-F4C6FD470BE8" style="display: block;"><g class="djs-visual"><path data-corner-radius="5" style="fill: none; stroke-linecap: round; stroke-linejoin: round; stroke: rgb(34, 36, 42); stroke-width: 2px; marker-end: url('#sequenceflow-end-white-hsl_225_10_15_-5dhdh8my7pu33k5fvo0ndvu42');" d="M171.78317956762766,474.894998568422L238.14681297566193,474.894998568422"/></g><path d="M171.78317956762766,474.894998568422L238.14681297566193,474.894998568422" class="djs-hit djs-hit-stroke" style="fill: none; stroke-opacity: 0; stroke: white; stroke-width: 15px;"/><rect x="165.78317956762766" y="468.894998568422" rx="4" width="78.36363340803427" height="12" class="djs-outline" style="fill: none;"/></g></g><g class="djs-group"><g class="djs-element djs-connection" data-element-id="sid-C4CC758D-EFDF-4FB1-8143-BF30E03B2883" style="display: block;"><g class="djs-visual"><path data-corner-radius="5" style="fill: none; stroke-linecap: round; stroke-linejoin: round; stroke: rgb(34, 36, 42); stroke-width: 2px; marker-end: url('#sequenceflow-end-white-hsl_225_10_15_-5dhdh8my7pu33k5fvo0ndvu42');" d="M338.14681297566193,475.1024674536877L388.14680972449963,475.30993632546307"/></g><path d="M338.14681297566193,475.1024674536877L388.14680972449963,475.30993632546307" class="djs-hit djs-hit-stroke" style="fill: none; stroke-opacity: 0; stroke: white; stroke-width: 15px;"/><rect x="332.14681297566193" y="469.1024674536877" rx="4" width="61.9999967488377" height="12.207468871775347" class="djs-outline" style="fill: none;"/></g></g><g class="djs-group"><g class="djs-element djs-connection" data-element-id="sid-B39EF14A-8B64-460A-97A0-D2D5A3B17417" style="display: block;"><g class="djs-visual"><path data-corner-radius="5" style="fill: none; stroke-linecap: round; stroke-linejoin: round; stroke: rgb(34, 36, 42); stroke-width: 2px; marker-end: url('#sequenceflow-end-white-hsl_225_10_15_-5dhdh8my7pu33k5fvo0ndvu42');" d="M408.55875818638106,454.894998568422L408.31861760375546,398.98590204368696"/></g><path d="M408.55875818638106,454.894998568422L408.31861760375546,398.98590204368696" class="djs-hit djs-hit-stroke" style="fill: none; stroke-opacity: 0; stroke: white; stroke-width: 15px;"/><rect x="402.31861760375546" y="392.98590204368696" rx="4" width="12.2401405826256" height="67.90909652473505" class="djs-outline" style="fill: none;"/></g></g><g class="djs-group"><g class="djs-element djs-shape" data-element-id="sid-B39EF14A-8B64-460A-97A0-D2D5A3B17417_label" style="display: block;" transform="matrix(1 0 0 1 423 424)"><g class="djs-visual"><text lineHeight="1.2" class="djs-label" style="font-family: Arial, sans-serif; font-size: 11px; font-weight: normal; fill: rgb(34, 36, 42);"><tspan x="0" y="9.899999999999999">Nein</tspan></text></g><rect class="djs-hit djs-hit-all" x="0" y="0" width="23" height="14" style="fill: none; stroke-opacity: 0; stroke: white; stroke-width: 15px;"/><rect x="-6" y="-6" rx="4" width="35" height="26" class="djs-outline" style="fill: none;"/></g></g><g class="djs-group"><g class="djs-element djs-connection" data-element-id="sid-7E781966-EB88-46AC-91E3-20554C9A1472" style="display: block;"><g class="djs-visual"><path data-corner-radius="5" style="fill: none; stroke-linecap: round; stroke-linejoin: round; stroke: rgb(34, 36, 42); stroke-width: 2px; marker-end: url('#sequenceflow-end-white-hsl_225_10_15_-5dhdh8my7pu33k5fvo0ndvu42');" d="M428.14680972449963,475.31830924940454L485.7831583700494,475.0916378479542"/></g><path d="M428.14680972449963,475.31830924940454L485.7831583700494,475.0916378479542" class="djs-hit djs-hit-stroke" style="fill: none; stroke-opacity: 0; stroke: white; stroke-width: 15px;"/><rect x="422.14680972449963" y="469.0916378479542" rx="4" width="69.63634864554979" height="12.226671401450346" class="djs-outline" style="fill: none;"/></g></g><g class="djs-group"><g class="djs-element djs-shape" data-element-id="sid-7E781966-EB88-46AC-91E3-20554C9A1472_label" style="display: block;" transform="matrix(1 0 0 1 436 455)"><g class="djs-visual"><text lineHeight="1.2" class="djs-label" style="font-family: Arial, sans-serif; font-size: 11px; font-weight: normal; fill: rgb(34, 36, 42);"><tspan x="0" y="9.899999999999999">Ja</tspan></text></g><rect class="djs-hit djs-hit-all" x="0" y="0" width="12" height="14" style="fill: none; stroke-opacity: 0; stroke: white; stroke-width: 15px;"/><rect x="-6" y="-6" rx="4" width="24" height="26" class="djs-outline" style="fill: none;"/></g></g><g class="djs-group"><g class="djs-element djs-connection" data-element-id="sid-242DC8F8-384F-4DB4-AE48-802664532965" style="display: block;"><g class="djs-visual"><path data-corner-radius="5" style="fill: none; stroke-linecap: round; stroke-linejoin: round; stroke: rgb(34, 36, 42); stroke-width: 2px; marker-end: url('#sequenceflow-end-white-hsl_225_10_15_-5dhdh8my7pu33k5fvo0ndvu42');" d="M458.14680972449963,358.98590204368696L503.14680972449963,358.98590204368696"/></g><path d="M458.14680972449963,358.98590204368696L503.14680972449963,358.98590204368696" class="djs-hit djs-hit-stroke" style="fill: none; stroke-opacity: 0; stroke: white; stroke-width: 15px;"/><rect x="452.14680972449963" y="352.98590204368696" rx="4" width="57" height="12" class="djs-outline" style="fill: none;"/></g></g><g class="djs-group"><g class="djs-element djs-connection" data-element-id="sid-67977421-014F-4BFB-8CB8-23674925247A" style="display: block;"><g class="djs-visual"><path data-corner-radius="5" style="fill: none; stroke-linecap: round; stroke-linejoin: round; stroke: rgb(34, 36, 42); stroke-width: 2px; marker-end: url('#sequenceflow-end-white-hsl_225_10_15_-5dhdh8my7pu33k5fvo0ndvu42');" d="M585.7831583700494,474.8949985684221L630.7831583700494,474.8949985684221"/></g><path d="M585.7831583700494,474.8949985684221L630.7831583700494,474.8949985684221" class="djs-hit djs-hit-stroke" style="fill: none; stroke-opacity: 0; stroke: white; stroke-width: 15px;"/><rect x="579.7831583700494" y="468.8949985684221" rx="4" width="57" height="12" class="djs-outline" style="fill: none;"/></g></g><g class="djs-group"><g class="djs-element djs-connection" data-element-id="sid-2D69966E-7F22-489B-A002-3D955500DE99" style="display: block;"><g class="djs-visual"><path data-corner-radius="5" style="fill: none; stroke-linecap: round; stroke-linejoin: round; stroke: rgb(34, 36, 42); stroke-width: 2px; marker-end: url('#sequenceflow-end-white-hsl_225_10_15_-5dhdh8my7pu33k5fvo0ndvu42');" d="M819.4649655928642,475.2753666795741L866.4649744441537,474.9870230983051"/></g><path d="M819.4649655928642,475.2753666795741L866.4649744441537,474.9870230983051" class="djs-hit djs-hit-stroke" style="fill: none; stroke-opacity: 0; stroke: white; stroke-width: 15px;"/><rect x="813.4649655928642" y="468.9870230983051" rx="4" width="59.00000885128941" height="12.288343581269032" class="djs-outline" style="fill: none;"/></g></g><g class="djs-group"><g class="djs-element djs-connection" data-element-id="sid-26CC9B8C-0A5A-4A1A-A4E3-C407489D487E" style="display: block;"><g class="djs-visual"><path data-corner-radius="5" style="fill: none; stroke-linecap: round; stroke-linejoin: round; stroke: rgb(34, 36, 42); stroke-width: 2px; marker-end: url('#sequenceflow-end-white-hsl_225_10_15_-5dhdh8my7pu33k5fvo0ndvu42');" d="M881.4649744441537,459.8949985684221L881.4649744441537,378.16771669947184C881.4649744441537,375.66771669947184,883.9649744441537,373.16771669947184,886.4649744441537,373.16771669947184L1171.4649744441538,373.16771669947184"/></g><path d="M881.4649744441537,459.8949985684221L881.4649744441537,373.16771669947184L1171.4649744441538,373.16771669947184" class="djs-hit djs-hit-stroke" style="fill: none; stroke-opacity: 0; stroke: white; stroke-width: 15px;"/><rect x="875.4649744441537" y="367.16771669947184" rx="4" width="302.0000000000001" height="98.72728186895029" class="djs-outline" style="fill: none;"/></g></g><g class="djs-group"><g class="djs-element djs-connection" data-element-id="sid-F539FB7D-F20C-4F2C-AD34-FA10D3CC253C" style="display: block;"><g class="djs-visual"><path data-corner-radius="5" style="fill: none; stroke-linecap: round; stroke-linejoin: round; stroke: rgb(34, 36, 42); stroke-width: 2px; marker-end: url('#sequenceflow-end-white-hsl_225_10_15_-5dhdh8my7pu33k5fvo0ndvu42');" d="M894.4649655928641,579.1677098151356L1059.4649685432942,579.1677098151356"/></g><path d="M894.4649655928641,579.1677098151356L1059.4649685432942,579.1677098151356" class="djs-hit djs-hit-stroke" style="fill: none; stroke-opacity: 0; stroke: white; stroke-width: 15px;"/><rect x="888.4649655928641" y="573.1677098151356" rx="4" width="177.00000295043003" height="12" class="djs-outline" style="fill: none;"/></g></g><g class="djs-group"><g class="djs-element djs-connection" data-element-id="sid-79117992-26E1-4EE6-A146-92D944F59150" style="display: block;"><g class="djs-visual"><path data-corner-radius="5" style="fill: none; stroke-linecap: round; stroke-linejoin: round; stroke: rgb(34, 36, 42); stroke-width: 2px; marker-end: url('#sequenceflow-end-white-hsl_225_10_15_-5dhdh8my7pu33k5fvo0ndvu42');" d="M1159.4649685432942,579.2723123275329L1327.9649641176493,579.6248227850527"/></g><path d="M1159.4649685432942,579.2723123275329L1327.9649641176493,579.6248227850527" class="djs-hit djs-hit-stroke" style="fill: none; stroke-opacity: 0; stroke: white; stroke-width: 15px;"/><rect x="1153.4649685432942" y="573.2723123275329" rx="4" width="180.49999557435513" height="12.352510457519884" class="djs-outline" style="fill: none;"/></g></g><g class="djs-group"><g class="djs-element djs-connection" data-element-id="sid-3CF3B44E-E0C1-4449-A83E-57EB3BC819AC" style="display: block;"><g class="djs-visual"><path data-corner-radius="5" style="fill: none; stroke-linecap: round; stroke-linejoin: round; stroke: rgb(34, 36, 42); stroke-width: 2px; marker-end: url('#sequenceflow-end-white-hsl_225_10_15_-5dhdh8my7pu33k5fvo0ndvu42');" d="M1576.4649744441538,373.16771669947184L1621.4649744441538,373.16771669947184"/></g><path d="M1576.4649744441538,373.16771669947184L1621.4649744441538,373.16771669947184" class="djs-hit djs-hit-stroke" style="fill: none; stroke-opacity: 0; stroke: white; stroke-width: 15px;"/><rect x="1570.4649744441538" y="367.16771669947184" rx="4" width="57" height="12" class="djs-outline" style="fill: none;"/></g></g><g class="djs-group"><g class="djs-element djs-connection" data-element-id="sid-8F978AF7-BF92-4B4A-80C5-AB0D69715F2F" style="display: block;"><g class="djs-visual"><path data-corner-radius="5" style="fill: none; stroke-linecap: round; stroke-linejoin: round; stroke: rgb(34, 36, 42); stroke-width: 2px; marker-end: url('#sequenceflow-end-white-hsl_225_10_15_-5dhdh8my7pu33k5fvo0ndvu42');" d="M730.7831583700494,475.1038410666342L779.4649655928642,475.30717767139197"/></g><path d="M730.7831583700494,475.1038410666342L779.4649655928642,475.30717767139197" class="djs-hit djs-hit-stroke" style="fill: none; stroke-opacity: 0; stroke: white; stroke-width: 15px;"/><rect x="724.7831583700494" y="469.1038410666342" rx="4" width="60.68180722281488" height="12.203336604757794" class="djs-outline" style="fill: none;"/></g></g><g class="djs-group"><g class="djs-element djs-connection" data-element-id="sid-0C15D995-638C-40B3-8D07-F70405B8697E" style="display: block;"><g class="djs-visual"><path data-corner-radius="5" style="fill: none; stroke-linecap: round; stroke-linejoin: round; stroke: rgb(34, 36, 42); stroke-width: 2px; marker-end: url('#sequenceflow-end-white-hsl_225_10_15_-5dhdh8my7pu33k5fvo0ndvu42');" d="M894.4649655928641,678.1677068647057L1499.4649685432942,678.1677068647057"/></g><path d="M894.4649655928641,678.1677068647057L1499.4649685432942,678.1677068647057" class="djs-hit djs-hit-stroke" style="fill: none; stroke-opacity: 0; stroke: white; stroke-width: 15px;"/><rect x="888.4649655928641" y="672.1677068647057" rx="4" width="617.00000295043" height="12" class="djs-outline" style="fill: none;"/></g></g><g class="djs-group"><g class="djs-element djs-connection" data-element-id="sid-0E754ADB-578F-413C-8299-7E43C7576B3A" style="display: block;"><g class="djs-visual"><path data-corner-radius="5" style="fill: none; stroke-linecap: round; stroke-linejoin: round; stroke: rgb(34, 36, 42); stroke-width: 2px; marker-end: url('#sequenceflow-end-white-hsl_225_10_15_-5dhdh8my7pu33k5fvo0ndvu42');" d="M1599.4649685432942,678.1677068647057L1624.4649685432942,678.1677068647057"/></g><path d="M1599.4649685432942,678.1677068647057L1624.4649685432942,678.1677068647057" class="djs-hit djs-hit-stroke" style="fill: none; stroke-opacity: 0; stroke: white; stroke-width: 15px;"/><rect x="1593.4649685432942" y="672.1677068647057" rx="4" width="37" height="12" class="djs-outline" style="fill: none;"/></g></g><g class="djs-group"><g class="djs-element djs-connection" data-element-id="sid-1F987A39-C5D6-4BDE-B113-4C75853EA1D7" style="display: block;"><g class="djs-visual"><path data-corner-radius="5" style="fill: none; stroke-linecap: round; stroke-linejoin: round; stroke: rgb(34, 36, 42); stroke-width: 2px; marker-end: url('#sequenceflow-end-white-hsl_225_10_15_-5dhdh8my7pu33k5fvo0ndvu42');" d="M1271.4649744441538,373.3522185444903L1336.4649744441538,373.5920709430143"/></g><path d="M1271.4649744441538,373.3522185444903L1336.4649744441538,373.5920709430143" class="djs-hit djs-hit-stroke" style="fill: none; stroke-opacity: 0; stroke: white; stroke-width: 15px;"/><rect x="1265.4649744441538" y="367.3522185444903" rx="4" width="77" height="12.239852398523965" class="djs-outline" style="fill: none;"/></g></g><g class="djs-group"><g class="djs-element djs-connection" data-element-id="sid-805092C6-3BA6-4241-937E-85DB50D18F35" style="display: block;"><g class="djs-visual"><path data-corner-radius="5" style="fill: none; stroke-linecap: round; stroke-linejoin: round; stroke: rgb(34, 36, 42); stroke-width: 2px; marker-end: url('#sequenceflow-end-white-hsl_225_10_15_-5dhdh8my7pu33k5fvo0ndvu42');" d="M1376.4649744441538,373.59468299160665L1476.4649744441538,373.2201511564007"/></g><path d="M1376.4649744441538,373.59468299160665L1476.4649744441538,373.2201511564007" class="djs-hit djs-hit-stroke" style="fill: none; stroke-opacity: 0; stroke: white; stroke-width: 15px;"/><rect x="1370.4649744441538" y="367.2201511564007" rx="4" width="112" height="12.374531835205971" class="djs-outline" style="fill: none;"/></g></g><g class="djs-group"><g class="djs-element djs-connection" data-element-id="sid-E1FD91BE-435C-47ED-A012-5E48BEB16051" style="display: block;"><g class="djs-visual"><path data-corner-radius="5" style="fill: none; stroke-linecap: round; stroke-linejoin: round; stroke: rgb(34, 36, 42); stroke-width: 2px; marker-end: url('#sequenceflow-end-white-hsl_225_10_15_-5dhdh8my7pu33k5fvo0ndvu42');" d="M1349.9183876891816,559.1677098151356L1356.611368498731,464.7656997726652C1356.7881714714426,462.27195946765335,1356.964974444154,457.27821916264156,1356.964974444154,454.77821916264156L1356.9649744441538,393.16771669947184"/></g><path d="M1349.9183876891816,559.1677098151356L1356.964974444154,459.77821916264156L1356.9649744441538,393.16771669947184" class="djs-hit djs-hit-stroke" style="fill: none; stroke-opacity: 0; stroke: white; stroke-width: 15px;"/><rect x="1343.9183876891816" y="387.16771669947184" rx="4" width="19.046586754972395" height="177.99999311566376" class="djs-outline" style="fill: none;"/></g></g><g class="djs-group"><g class="djs-element djs-shape" data-element-id="sid-E1FD91BE-435C-47ED-A012-5E48BEB16051_label" style="display: block;" transform="matrix(1 0 0 1 1331 540)"><g class="djs-visual"><text lineHeight="1.2" class="djs-label" style="font-family: Arial, sans-serif; font-size: 11px; font-weight: normal; fill: rgb(34, 36, 42);"><tspan x="0" y="9.899999999999999">Ja</tspan></text></g><rect class="djs-hit djs-hit-all" x="0" y="0" width="12" height="14" style="fill: none; stroke-opacity: 0; stroke: white; stroke-width: 15px;"/><rect x="-6" y="-6" rx="4" width="24" height="26" class="djs-outline" style="fill: none;"/></g></g><g class="djs-group"><g class="djs-element djs-connection" data-element-id="sid-64F8BC3E-9994-46F1-BEF6-C89A6C1E9D64" style="display: block;"><g class="djs-visual"><path data-corner-radius="5" style="fill: none; stroke-linecap: round; stroke-linejoin: round; stroke: rgb(34, 36, 42); stroke-width: 2px; marker-end: url('#sequenceflow-end-white-hsl_225_10_15_-5dhdh8my7pu33k5fvo0ndvu42');" d="M1367.9649641176493,579.6677098151356L1553.9650290271056,579.6677098151356C1556.4650290271056,579.6677098151356,1558.9650290271056,582.1677098151356,1558.9650290271056,584.6677098151356L1558.9650290271056,638.1677068647057"/></g><path d="M1367.9649641176493,579.6677098151356L1558.9650290271056,579.6677098151356L1558.9650290271056,638.1677068647057" class="djs-hit djs-hit-stroke" style="fill: none; stroke-opacity: 0; stroke: white; stroke-width: 15px;"/><rect x="1361.9649641176493" y="573.6677098151356" rx="4" width="203.00006490945634" height="70.49999704957008" class="djs-outline" style="fill: none;"/></g></g><g class="djs-group"><g class="djs-element djs-shape" data-element-id="sid-64F8BC3E-9994-46F1-BEF6-C89A6C1E9D64_label" style="display: block;" transform="matrix(1 0 0 1 1377 560)"><g class="djs-visual"><text lineHeight="1.2" class="djs-label" style="font-family: Arial, sans-serif; font-size: 11px; font-weight: normal; fill: rgb(34, 36, 42);"><tspan x="0" y="9.899999999999999">nein</tspan></text></g><rect class="djs-hit djs-hit-all" x="0" y="0" width="21" height="14" style="fill: none; stroke-opacity: 0; stroke: white; stroke-width: 15px;"/><rect x="-6" y="-6" rx="4" width="33" height="26" class="djs-outline" style="fill: none;"/></g></g><g class="djs-group"><g class="djs-element djs-connection" data-element-id="sid-AB7B57B6-E3EB-4302-9668-9F23D4F18348" style="display: block;"><g class="djs-visual"><path data-corner-radius="5" style="fill: none; stroke-linecap: round; stroke-linejoin: round; stroke: rgb(34, 36, 42); stroke-width: 2px; marker-end: url('#sequenceflow-end-white-hsl_225_10_15_-5dhdh8my7pu33k5fvo0ndvu42');" d="M799.9649655928642,494.894998568422L799.9649655928641,574.1677098151357C799.9649655928641,576.6677098151357,802.4649655928641,579.1677098151357,804.9649655928641,579.1677098151357L864.4649655928641,579.1677098151356"/></g><path d="M799.9649655928642,494.894998568422L799.9649655928641,579.1677098151357L864.4649655928641,579.1677098151356" class="djs-hit djs-hit-stroke" style="fill: none; stroke-opacity: 0; stroke: white; stroke-width: 15px;"/><rect x="793.9649655928641" y="488.894998568422" rx="4" width="76.5" height="96.2727112467137" class="djs-outline" style="fill: none;"/></g></g><g class="djs-group"><g class="djs-element djs-connection" data-element-id="sid-827BA0C8-19C7-42BC-B527-53C05E94BAA0" style="display: block;"><g class="djs-visual"><path data-corner-radius="5" style="fill: none; stroke-linecap: round; stroke-linejoin: round; stroke: rgb(34, 36, 42); stroke-width: 2px; marker-end: url('#sequenceflow-end-white-hsl_225_10_15_-5dhdh8my7pu33k5fvo0ndvu42');" d="M799.9649655928642,494.894998568422L799.9649655928641,673.1677068647058C799.9649655928641,675.6677068647058,802.4649655928641,678.1677068647058,804.9649655928641,678.1677068647058L864.4649655928641,678.1677068647057"/></g><path d="M799.9649655928642,494.894998568422L799.9649655928641,678.1677068647058L864.4649655928641,678.1677068647057" class="djs-hit djs-hit-stroke" style="fill: none; stroke-opacity: 0; stroke: white; stroke-width: 15px;"/><rect x="793.9649655928641" y="488.894998568422" rx="4" width="76.5" height="195.27270829628378" class="djs-outline" style="fill: none;"/></g></g></g></g></svg>