<?xml version="1.0" encoding="utf-8"?>
<!-- created with bpmn-js / http://bpmn.io -->
<!DOCTYPE svg PUBLIC "-//W3C//DTD SVG 1.1//EN" "http://www.w3.org/Graphics/SVG/1.1/DTD/svg11.dtd">
<svg xmlns="http://www.w3.org/2000/svg" xmlns:xlink="http://www.w3.org/1999/xlink" width="1017" height="644" viewBox="54 114 1017 644" version="1.1"><defs><marker id="sequenceflow-end-white-hsl_225_10_15_-eiq5encv4nqrac3ae6eiusjjk" viewBox="0 0 20 20" refX="11" refY="10" markerWidth="10" markerHeight="10" orient="auto"><path d="M 1 5 L 11 10 L 1 15 Z" style="stroke-linecap: round; stroke-linejoin: round; stroke: rgb(34, 36, 42); stroke-width: 1px; fill: rgb(34, 36, 42);"/></marker><marker id="messageflow-end-white-hsl_225_10_15_-eiq5encv4nqrac3ae6eiusjjk" viewBox="0 0 20 20" refX="8.5" refY="5" markerWidth="20" markerHeight="20" orient="auto"><path d="m 1 5 l 0 -3 l 7 3 l -7 3 z" style="stroke-linecap: round; stroke-linejoin: round; stroke: rgb(34, 36, 42); stroke-width: 1px; fill: white; stroke-dasharray: 10000, 1;"/></marker><marker id="messageflow-start-white-hsl_225_10_15_-eiq5encv4nqrac3ae6eiusjjk" viewBox="0 0 20 20" refX="6" refY="6" markerWidth="20" markerHeight="20" orient="auto"><circle cx="6" cy="6" r="3.5" style="stroke-linecap: round; stroke-linejoin: round; stroke: rgb(34, 36, 42); stroke-width: 1px; fill: white; stroke-dasharray: 10000, 1;"/></marker></defs><g class="djs-group"><g class="djs-element djs-shape" data-element-id="sid-CA15DC6A-1B85-4A59-BCC6-D4635A5A9150" style="display: block;" transform="matrix(1 0 0 1 60 120)"><g class="djs-visual"><rect x="0" y="0" width="1005" height="60" rx="0" ry="0" style="stroke-linecap: round; stroke-linejoin: round; stroke: rgb(34, 36, 42); stroke-width: 1.5px; fill: white; fill-opacity: 0.95;"/><text lineHeight="1.2" class="djs-label" style="font-family: Arial, sans-serif; font-size: 12px; font-weight: normal; fill: rgb(34, 36, 42);"><tspan x="420.1171875" y="33.6">Kreditvergabe Frontend (Bank)</tspan></text></g><rect class="djs-hit djs-hit-all" x="0" y="0" width="1005" height="60" style="fill: none; stroke-opacity: 0; stroke: white; stroke-width: 15px;"/><rect x="-6" y="-6" rx="4" width="1017" height="72" class="djs-outline" style="fill: none;"/></g></g><g class="djs-group"><g class="djs-element djs-shape" data-element-id="sid-F2876700-3896-468A-844A-16789668C484" style="display: block;" transform="matrix(1 0 0 1 60 210)"><g class="djs-visual"><rect x="0" y="0" width="1005" height="250" rx="0" ry="0" style="stroke-linecap: round; stroke-linejoin: round; stroke: rgb(34, 36, 42); stroke-width: 1.5px; fill: white; fill-opacity: 0.95;"/><path style="fill: none; stroke-linecap: round; stroke-linejoin: round; stroke: rgb(34, 36, 42); stroke-width: 1.5px;" d="M30,0L30,250"/><text lineHeight="1.2" class="djs-label" style="font-family: Arial, sans-serif; font-size: 12px; font-weight: normal; fill: rgb(34, 36, 42);" transform="matrix(-1.83697e-16 -1 1 -1.83697e-16 0 250)"><tspan x="64.6328125" y="18.6">Schufa-Scoring (Bank)</tspan></text></g><rect class="djs-hit djs-hit-all" x="0" y="0" width="1005" height="250" style="fill: none; stroke-opacity: 0; stroke: white; stroke-width: 15px;"/><rect x="-6" y="-6" rx="4" width="1017" height="262" class="djs-outline" style="fill: none;"/></g><g class="djs-children"><g class="djs-group"><g class="djs-element djs-shape" data-element-id="sid-A5B4EBF2-7CA6-43B0-BCF8-6133E6EA58B8" style="display: block;" transform="matrix(1 0 0 1 90 210)"><g class="djs-visual"><rect x="0" y="0" width="975" height="250" rx="0" ry="0" style="stroke-linecap: round; stroke-linejoin: round; stroke: rgb(34, 36, 42); stroke-width: 1.5px; fill: white; fill-opacity: 0.35;"/><text lineHeight="1.2" class="djs-label" style="font-family: Arial, sans-serif; font-size: 12px; font-weight: normal; fill: rgb(34, 36, 42);" transform="matrix(-1.83697e-16 -1 1 -1.83697e-16 0 250)"><tspan x="125" y="18.6"/></text></g><rect class="djs-hit djs-hit-all" x="0" y="0" width="975" height="250" style="fill: none; stroke-opacity: 0; stroke: white; stroke-width: 15px;"/><rect x="-6" y="-6" rx="4" width="987" height="262" class="djs-outline" style="fill: none;"/></g></g><g class="djs-group"><g class="djs-element djs-shape" data-element-id="sid-1A5492C2-C2B6-46C3-8794-18E0F8F02709" style="display: block;" transform="matrix(1 0 0 1 120 320)"><g class="djs-visual"><circle cx="15" cy="15" r="15" style="stroke-linecap: round; stroke-linejoin: round; stroke: rgb(34, 36, 42); stroke-width: 2px; fill: white; fill-opacity: 0.95;"/><path d="m 7.05,9.45 l 0,10.5 l 15.75,0 l 0,-10.5 z l 7.875,4.5 l 7.875,-4.5" style="fill: white; stroke-linecap: round; stroke-linejoin: round; stroke: rgb(34, 36, 42); stroke-width: 1px;"/></g><rect class="djs-hit djs-hit-all" x="0" y="0" width="30" height="30" style="fill: none; stroke-opacity: 0; stroke: white; stroke-width: 15px;"/><rect x="-6" y="-6" rx="4" width="42" height="42" class="djs-outline" style="fill: none;"/></g></g><g class="djs-group"><g class="djs-element djs-shape" data-element-id="sid-B4D98AE9-4FD5-47A3-BF30-1B6DFFAAEF3F" style="display: block;" transform="matrix(1 0 0 1 195 295)"><g class="djs-visual"><rect x="0" y="0" width="100" height="80" rx="10" ry="10" style="stroke-linecap: round; stroke-linejoin: round; stroke: rgb(34, 36, 42); stroke-width: 2px; fill: white; fill-opacity: 0.95;"/><text lineHeight="1.2" class="djs-label" style="font-family: Arial, sans-serif; font-size: 12px; font-weight: normal; fill: rgb(34, 36, 42);"><tspan x="27.65625" y="29.200000000000003">Scoring-</tspan><tspan x="20.9814453125" y="43.6">Anfrage an </tspan><tspan x="12.146484375" y="58">Schufa stellen</tspan></text></g><rect class="djs-hit djs-hit-all" x="0" y="0" width="100" height="80" style="fill: none; stroke-opacity: 0; stroke: white; stroke-width: 15px;"/><rect x="-6" y="-6" rx="4" width="112" height="92" class="djs-outline" style="fill: none;"/></g></g><g class="djs-group"><g class="djs-element djs-shape" data-element-id="sid-227876E7-49B1-4C06-9371-988F688C42DF" style="display: block;" transform="matrix(1 0 0 1 335 315)"><g class="djs-visual"><polygon points="20,0 40,20 20,40 0,20" style="stroke-linecap: round; stroke-linejoin: round; stroke: rgb(34, 36, 42); stroke-width: 2px; fill: white; fill-opacity: 0.95;"/><circle cx="20" cy="20" r="12" style="stroke-linecap: round; stroke-linejoin: round; stroke: rgb(34, 36, 42); stroke-width: 1px; fill: none;"/><circle cx="20" cy="20" r="10" style="stroke-linecap: round; stroke-linejoin: round; stroke: rgb(34, 36, 42); stroke-width: 1px; fill: none;"/><path d="m 14.399999999999999,17.6 5.890909090909091,-3.9272727272727272 5.890909090909091,3.9272727272727272 -1.9636363636363636,7.8545454545454545 -7.8545454545454545,0 z" style="fill: none; stroke-linecap: round; stroke-linejoin: round; stroke: rgb(34, 36, 42); stroke-width: 2px;"/></g><rect class="djs-hit djs-hit-all" x="0" y="0" width="40" height="40" style="fill: none; stroke-opacity: 0; stroke: white; stroke-width: 15px;"/><rect x="-6" y="-6" rx="4" width="52" height="52" class="djs-outline" style="fill: none;"/></g></g><g class="djs-group"><g class="djs-element djs-shape" data-element-id="sid-BBA78C27-A8E4-4F04-A47A-BF80431F7D76" style="display: block;" transform="matrix(1 0 0 1 340 390)"><g class="djs-visual"><circle cx="15" cy="15" r="15" style="stroke-linecap: round; stroke-linejoin: round; stroke: rgb(34, 36, 42); stroke-width: 1.5px; fill: white; fill-opacity: 0.95;"/><circle cx="15" cy="15" r="12" style="stroke-linecap: round; stroke-linejoin: round; stroke: rgb(34, 36, 42); stroke-width: 1.5px; fill: none;"/><path d="m 7.05,9.45 l 0,10.5 l 15.75,0 l 0,-10.5 z l 7.875,4.5 l 7.875,-4.5" style="fill: white; stroke-linecap: round; stroke-linejoin: round; stroke: rgb(34, 36, 42); stroke-width: 1px;"/></g><rect class="djs-hit djs-hit-all" x="0" y="0" width="30" height="30" style="fill: none; stroke-opacity: 0; stroke: white; stroke-width: 15px;"/><rect x="-6" y="-6" rx="4" width="42" height="42" class="djs-outline" style="fill: none;"/></g></g><g class="djs-group"><g class="djs-element djs-shape" data-element-id="sid-BBA78C27-A8E4-4F04-A47A-BF80431F7D76_label" style="display: block;" transform="matrix(1 0 0 1 335 422)"><g class="djs-visual"><text lineHeight="1.2" class="djs-label" style="font-family: Arial, sans-serif; font-size: 11px; font-weight: normal; fill: rgb(34, 36, 42);"><tspan x="1.278076171875" y="9.899999999999999">Scoring</tspan><tspan x="2.184326171875" y="23.099999999999998">Level 1 </tspan><tspan x="0" y="36.3">liegt vor</tspan></text></g><rect class="djs-hit djs-hit-all" x="0" y="0" width="40" height="40" style="fill: none; stroke-opacity: 0; stroke: white; stroke-width: 15px;"/><rect x="-6" y="-6" rx="4" width="52" height="52" class="djs-outline" style="fill: none;"/></g></g><g class="djs-group"><g class="djs-element djs-shape" data-element-id="sid-9197E9DE-6218-4A4D-BB90-ABF2958BE6A6" style="display: block;" transform="matrix(1 0 0 1 415 365)"><g class="djs-visual"><rect x="0" y="0" width="100" height="80" rx="10" ry="10" style="stroke-linecap: round; stroke-linejoin: round; stroke: rgb(34, 36, 42); stroke-width: 2px; fill: white; fill-opacity: 0.95;"/><text lineHeight="1.2" class="djs-label" style="font-family: Arial, sans-serif; font-size: 12px; font-weight: normal; fill: rgb(34, 36, 42);"><tspan x="26.8212890625" y="29.200000000000003">Meldung </tspan><tspan x="10.1416015625" y="43.6">Ergebnis Level </tspan><tspan x="14.484375" y="58">1 weiterleiten</tspan></text></g><rect class="djs-hit djs-hit-all" x="0" y="0" width="100" height="80" style="fill: none; stroke-opacity: 0; stroke: white; stroke-width: 15px;"/><rect x="-6" y="-6" rx="4" width="112" height="92" class="djs-outline" style="fill: none;"/></g></g><g class="djs-group"><g class="djs-element djs-shape" data-element-id="sid-5446AD82-93D7-40D4-9183-A476556D384E" style="display: block;" transform="matrix(1 0 0 1 585 320)"><g class="djs-visual"><circle cx="15" cy="15" r="15" style="stroke-linecap: round; stroke-linejoin: round; stroke: rgb(34, 36, 42); stroke-width: 1.5px; fill: white; fill-opacity: 0.95;"/><circle cx="15" cy="15" r="12" style="stroke-linecap: round; stroke-linejoin: round; stroke: rgb(34, 36, 42); stroke-width: 1.5px; fill: none;"/><path d="m 7.05,9.45 l 0,10.5 l 15.75,0 l 0,-10.5 z l 7.875,4.5 l 7.875,-4.5" style="fill: white; stroke-linecap: round; stroke-linejoin: round; stroke: rgb(34, 36, 42); stroke-width: 1px;"/></g><rect class="djs-hit djs-hit-all" x="0" y="0" width="30" height="30" style="fill: none; stroke-opacity: 0; stroke: white; stroke-width: 15px;"/><rect x="-6" y="-6" rx="4" width="42" height="42" class="djs-outline" style="fill: none;"/></g></g><g class="djs-group"><g class="djs-element djs-shape" data-element-id="sid-11D94AB7-A17C-45B1-8947-16E8432ECB56" style="display: block;" transform="matrix(1 0 0 1 660 295)"><g class="djs-visual"><rect x="0" y="0" width="100" height="80" rx="10" ry="10" style="stroke-linecap: round; stroke-linejoin: round; stroke: rgb(34, 36, 42); stroke-width: 2px; fill: white; fill-opacity: 0.95;"/><text lineHeight="1.2" class="djs-label" style="font-family: Arial, sans-serif; font-size: 12px; font-weight: normal; fill: rgb(34, 36, 42);"><tspan x="14.81640625" y="29.200000000000003">Hinweis über </tspan><tspan x="15.8115234375" y="43.6">Verzögerung </tspan><tspan x="30.15234375" y="58">senden</tspan></text></g><rect class="djs-hit djs-hit-all" x="0" y="0" width="100" height="80" style="fill: none; stroke-opacity: 0; stroke: white; stroke-width: 15px;"/><rect x="-6" y="-6" rx="4" width="112" height="92" class="djs-outline" style="fill: none;"/></g></g><g class="djs-group"><g class="djs-element djs-shape" data-element-id="sid-E1909032-AF0B-4256-B267-32E5A01FF118" style="display: block;" transform="matrix(1 0 0 1 780 320)"><g class="djs-visual"><circle cx="15" cy="15" r="15" style="stroke-linecap: round; stroke-linejoin: round; stroke: rgb(34, 36, 42); stroke-width: 1.5px; fill: white; fill-opacity: 0.95;"/><circle cx="15" cy="15" r="12" style="stroke-linecap: round; stroke-linejoin: round; stroke: rgb(34, 36, 42); stroke-width: 1.5px; fill: none;"/><path d="m 7.05,9.45 l 0,10.5 l 15.75,0 l 0,-10.5 z l 7.875,4.5 l 7.875,-4.5" style="fill: white; stroke-linecap: round; stroke-linejoin: round; stroke: rgb(34, 36, 42); stroke-width: 1px;"/></g><rect class="djs-hit djs-hit-all" x="0" y="0" width="30" height="30" style="fill: none; stroke-opacity: 0; stroke: white; stroke-width: 15px;"/><rect x="-6" y="-6" rx="4" width="42" height="42" class="djs-outline" style="fill: none;"/></g></g><g class="djs-group"><g class="djs-element djs-shape" data-element-id="sid-AEEF0DC1-350E-4809-863B-E4F9C529AAE8" style="display: block;" transform="matrix(1 0 0 1 855 295)"><g class="djs-visual"><rect x="0" y="0" width="100" height="80" rx="10" ry="10" style="stroke-linecap: round; stroke-linejoin: round; stroke: rgb(34, 36, 42); stroke-width: 2px; fill: white; fill-opacity: 0.95;"/><text lineHeight="1.2" class="djs-label" style="font-family: Arial, sans-serif; font-size: 12px; font-weight: normal; fill: rgb(34, 36, 42);"><tspan x="26.8212890625" y="29.200000000000003">Meldung </tspan><tspan x="10.1416015625" y="43.6">Ergebnis Level </tspan><tspan x="14.484375" y="58">2 weiterleiten</tspan></text></g><rect class="djs-hit djs-hit-all" x="0" y="0" width="100" height="80" style="fill: none; stroke-opacity: 0; stroke: white; stroke-width: 15px;"/><rect x="-6" y="-6" rx="4" width="112" height="92" class="djs-outline" style="fill: none;"/></g></g><g class="djs-group"><g class="djs-element djs-shape" data-element-id="sid-AA637130-480C-47A6-A173-6F0474AA531B" style="display: block;" transform="matrix(1 0 0 1 1005 321)"><g class="djs-visual"><circle cx="14" cy="14" r="14" style="stroke-linecap: round; stroke-linejoin: round; stroke: rgb(34, 36, 42); stroke-width: 4px; fill: white; fill-opacity: 0.95;"/></g><rect class="djs-hit djs-hit-all" x="0" y="0" width="28" height="28" style="fill: none; stroke-opacity: 0; stroke: white; stroke-width: 15px;"/><rect x="-6" y="-6" rx="4" width="40" height="40" class="djs-outline" style="fill: none;"/></g></g><g class="djs-group"><g class="djs-element djs-shape" data-element-id="sid-690DCB00-BC30-4C14-AA3B-7726E2191235" style="display: block;" transform="matrix(1 0 0 1 560 391)"><g class="djs-visual"><circle cx="14" cy="14" r="14" style="stroke-linecap: round; stroke-linejoin: round; stroke: rgb(34, 36, 42); stroke-width: 4px; fill: white; fill-opacity: 0.95;"/></g><rect class="djs-hit djs-hit-all" x="0" y="0" width="28" height="28" style="fill: none; stroke-opacity: 0; stroke: white; stroke-width: 15px;"/><rect x="-6" y="-6" rx="4" width="40" height="40" class="djs-outline" style="fill: none;"/></g></g><g class="djs-group"><g class="djs-element djs-connection" data-element-id="sid-9D8986A4-1A56-44BB-9DBA-CA78CC8674B6" style="display: block;"><g class="djs-visual"><path data-corner-radius="5" style="fill: none; stroke-linecap: round; stroke-linejoin: round; stroke: rgb(34, 36, 42); stroke-width: 2px; marker-end: url('#sequenceflow-end-white-hsl_225_10_15_-eiq5encv4nqrac3ae6eiusjjk');" d="M150,335L195,335"/></g><path d="M150,335L195,335" class="djs-hit djs-hit-stroke" style="fill: none; stroke-opacity: 0; stroke: white; stroke-width: 15px;"/><rect x="144" y="329" rx="4" width="57" height="12" class="djs-outline" style="fill: none;"/></g></g><g class="djs-group"><g class="djs-element djs-connection" data-element-id="sid-4207CAE0-3D8F-4254-B7D7-74C43117FABA" style="display: block;"><g class="djs-visual"><path data-corner-radius="5" style="fill: none; stroke-linecap: round; stroke-linejoin: round; stroke: rgb(34, 36, 42); stroke-width: 2px; marker-end: url('#sequenceflow-end-white-hsl_225_10_15_-eiq5encv4nqrac3ae6eiusjjk');" d="M295,335.2262443438914L335,335.40723981900453"/></g><path d="M295,335.2262443438914L335,335.40723981900453" class="djs-hit djs-hit-stroke" style="fill: none; stroke-opacity: 0; stroke: white; stroke-width: 15px;"/><rect x="289" y="329.2262443438914" rx="4" width="52" height="12.18099547511315" class="djs-outline" style="fill: none;"/></g></g><g class="djs-group"><g class="djs-element djs-connection" data-element-id="sid-DFE3A433-0470-44A9-AB82-1E231665267C" style="display: block;"><g class="djs-visual"><path data-corner-radius="5" style="fill: none; stroke-linecap: round; stroke-linejoin: round; stroke: rgb(34, 36, 42); stroke-width: 2px; marker-end: url('#sequenceflow-end-white-hsl_225_10_15_-eiq5encv4nqrac3ae6eiusjjk');" d="M355.35971223021585,355L355.10791366906477,390"/></g><path d="M355.35971223021585,355L355.10791366906477,390" class="djs-hit djs-hit-stroke" style="fill: none; stroke-opacity: 0; stroke: white; stroke-width: 15px;"/><rect x="349.10791366906477" y="349" rx="4" width="12.251798561151077" height="47" class="djs-outline" style="fill: none;"/></g></g><g class="djs-group"><g class="djs-element djs-connection" data-element-id="sid-D8338884-FABF-43F8-91CB-AD93C0E95FC3" style="display: block;"><g class="djs-visual"><path data-corner-radius="5" style="fill: none; stroke-linecap: round; stroke-linejoin: round; stroke: rgb(34, 36, 42); stroke-width: 2px; marker-end: url('#sequenceflow-end-white-hsl_225_10_15_-eiq5encv4nqrac3ae6eiusjjk');" d="M370,405L415,405"/></g><path d="M370,405L415,405" class="djs-hit djs-hit-stroke" style="fill: none; stroke-opacity: 0; stroke: white; stroke-width: 15px;"/><rect x="364" y="399" rx="4" width="57" height="12" class="djs-outline" style="fill: none;"/></g></g><g class="djs-group"><g class="djs-element djs-connection" data-element-id="sid-AF53BC8D-5D84-4625-88D8-FD0E482C464F" style="display: block;"><g class="djs-visual"><path data-corner-radius="5" style="fill: none; stroke-linecap: round; stroke-linejoin: round; stroke: rgb(34, 36, 42); stroke-width: 2px; marker-end: url('#sequenceflow-end-white-hsl_225_10_15_-eiq5encv4nqrac3ae6eiusjjk');" d="M375,335L585,335"/></g><path d="M375,335L585,335" class="djs-hit djs-hit-stroke" style="fill: none; stroke-opacity: 0; stroke: white; stroke-width: 15px;"/><rect x="369" y="329" rx="4" width="222" height="12" class="djs-outline" style="fill: none;"/></g></g><g class="djs-group"><g class="djs-element djs-connection" data-element-id="sid-5F867884-BE02-4322-BB5C-E181667FBEB2" style="display: block;"><g class="djs-visual"><path data-corner-radius="5" style="fill: none; stroke-linecap: round; stroke-linejoin: round; stroke: rgb(34, 36, 42); stroke-width: 2px; marker-end: url('#sequenceflow-end-white-hsl_225_10_15_-eiq5encv4nqrac3ae6eiusjjk');" d="M615,335L660,335"/></g><path d="M615,335L660,335" class="djs-hit djs-hit-stroke" style="fill: none; stroke-opacity: 0; stroke: white; stroke-width: 15px;"/><rect x="609" y="329" rx="4" width="57" height="12" class="djs-outline" style="fill: none;"/></g></g><g class="djs-group"><g class="djs-element djs-connection" data-element-id="sid-C8047E05-0EE5-4DC3-9258-A5C95573D8E0" style="display: block;"><g class="djs-visual"><path data-corner-radius="5" style="fill: none; stroke-linecap: round; stroke-linejoin: round; stroke: rgb(34, 36, 42); stroke-width: 2px; marker-end: url('#sequenceflow-end-white-hsl_225_10_15_-eiq5encv4nqrac3ae6eiusjjk');" d="M810,335L855,335"/></g><path d="M810,335L855,335" class="djs-hit djs-hit-stroke" style="fill: none; stroke-opacity: 0; stroke: white; stroke-width: 15px;"/><rect x="804" y="329" rx="4" width="57" height="12" class="djs-outline" style="fill: none;"/></g></g><g class="djs-group"><g class="djs-element djs-connection" data-element-id="sid-87F81346-8770-4114-891E-6622B0B892F2" style="display: block;"><g class="djs-visual"><path data-corner-radius="5" style="fill: none; stroke-linecap: round; stroke-linejoin: round; stroke: rgb(34, 36, 42); stroke-width: 2px; marker-end: url('#sequenceflow-end-white-hsl_225_10_15_-eiq5encv4nqrac3ae6eiusjjk');" d="M955,335L1005,335"/></g><path d="M955,335L1005,335" class="djs-hit djs-hit-stroke" style="fill: none; stroke-opacity: 0; stroke: white; stroke-width: 15px;"/><rect x="949" y="329" rx="4" width="62" height="12" class="djs-outline" style="fill: none;"/></g></g><g class="djs-group"><g class="djs-element djs-connection" data-element-id="sid-6BF8E0D5-EB28-41F9-BB9F-965447190BAA" style="display: block;"><g class="djs-visual"><path data-corner-radius="5" style="fill: none; stroke-linecap: round; stroke-linejoin: round; stroke: rgb(34, 36, 42); stroke-width: 2px; marker-end: url('#sequenceflow-end-white-hsl_225_10_15_-eiq5encv4nqrac3ae6eiusjjk');" d="M515,405L560,405"/></g><path d="M515,405L560,405" class="djs-hit djs-hit-stroke" style="fill: none; stroke-opacity: 0; stroke: white; stroke-width: 15px;"/><rect x="509" y="399" rx="4" width="57" height="12" class="djs-outline" style="fill: none;"/></g></g><g class="djs-group"><g class="djs-element djs-connection" data-element-id="sid-81629BBE-BB80-4FA2-B476-E2303B104C9D" style="display: block;"><g class="djs-visual"><path data-corner-radius="5" style="fill: none; stroke-linecap: round; stroke-linejoin: round; stroke: rgb(34, 36, 42); stroke-width: 2px; marker-end: url('#sequenceflow-end-white-hsl_225_10_15_-eiq5encv4nqrac3ae6eiusjjk');" d="M760,335L780,335"/></g><path d="M760,335L780,335" class="djs-hit djs-hit-stroke" style="fill: none; stroke-opacity: 0; stroke: white; stroke-width: 15px;"/><rect x="754" y="329" rx="4" width="32" height="12" class="djs-outline" style="fill: none;"/></g></g></g></g><g class="djs-group"><g class="djs-element djs-shape" data-element-id="sid-CF50A028-3FC6-4A42-AE34-6C71BFD8BEAA" style="display: block;" transform="matrix(1 0 0 1 60 480)"><g class="djs-visual"><rect x="0" y="0" width="1005" height="272" rx="0" ry="0" style="stroke-linecap: round; stroke-linejoin: round; stroke: rgb(34, 36, 42); stroke-width: 1.5px; fill: white; fill-opacity: 0.95;"/><path style="fill: none; stroke-linecap: round; stroke-linejoin: round; stroke: rgb(34, 36, 42); stroke-width: 1.5px;" d="M30,0L30,272"/><text lineHeight="1.2" class="djs-label" style="font-family: Arial, sans-serif; font-size: 12px; font-weight: normal; fill: rgb(34, 36, 42);" transform="matrix(-1.83697e-16 -1 1 -1.83697e-16 0 272)"><tspan x="70.96875" y="18.6">Schufa-Service (Schufa)</tspan></text></g><rect class="djs-hit djs-hit-all" x="0" y="0" width="1005" height="272" style="fill: none; stroke-opacity: 0; stroke: white; stroke-width: 15px;"/><rect x="-6" y="-6" rx="4" width="1017" height="284" class="djs-outline" style="fill: none;"/></g><g class="djs-children"><g class="djs-group"><g class="djs-element djs-shape" data-element-id="sid-6BD01CDE-BC88-4587-BFC3-17565A2588DC" style="display: block;" transform="matrix(1 0 0 1 90 480)"><g class="djs-visual"><rect x="0" y="0" width="975" height="272" rx="0" ry="0" style="stroke-linecap: round; stroke-linejoin: round; stroke: rgb(34, 36, 42); stroke-width: 1.5px; fill: white; fill-opacity: 0.35;"/><text lineHeight="1.2" class="djs-label" style="font-family: Arial, sans-serif; font-size: 12px; font-weight: normal; fill: rgb(34, 36, 42);" transform="matrix(-1.83697e-16 -1 1 -1.83697e-16 0 272)"><tspan x="136" y="18.6"/></text></g><rect class="djs-hit djs-hit-all" x="0" y="0" width="975" height="272" style="fill: none; stroke-opacity: 0; stroke: white; stroke-width: 15px;"/><rect x="-6" y="-6" rx="4" width="987" height="284" class="djs-outline" style="fill: none;"/></g></g><g class="djs-group"><g class="djs-element djs-shape" data-element-id="sid-A9A33418-BBC1-4255-9285-032EFCED22AD" style="display: block;" transform="matrix(1 0 0 1 230 622)"><g class="djs-visual"><circle cx="15" cy="15" r="15" style="stroke-linecap: round; stroke-linejoin: round; stroke: rgb(34, 36, 42); stroke-width: 2px; fill: white; fill-opacity: 0.95;"/><path d="m 7.05,9.45 l 0,10.5 l 15.75,0 l 0,-10.5 z l 7.875,4.5 l 7.875,-4.5" style="fill: white; stroke-linecap: round; stroke-linejoin: round; stroke: rgb(34, 36, 42); stroke-width: 1px;"/></g><rect class="djs-hit djs-hit-all" x="0" y="0" width="30" height="30" style="fill: none; stroke-opacity: 0; stroke: white; stroke-width: 15px;"/><rect x="-6" y="-6" rx="4" width="42" height="42" class="djs-outline" style="fill: none;"/></g></g><g class="djs-group"><g class="djs-element djs-shape" data-element-id="sid-A9A33418-BBC1-4255-9285-032EFCED22AD_label" style="display: block;" transform="matrix(1 0 0 1 213 654)"><g class="djs-visual"><text lineHeight="1.2" class="djs-label" style="font-family: Arial, sans-serif; font-size: 11px; font-weight: normal; fill: rgb(34, 36, 42);"><tspan x="13.1640625" y="9.899999999999999">Scoring </tspan><tspan x="13.046875" y="23.099999999999998">Anfrage</tspan><tspan x="0" y="36.3">eingegangen</tspan></text></g><rect class="djs-hit djs-hit-all" x="0" y="0" width="64" height="40" style="fill: none; stroke-opacity: 0; stroke: white; stroke-width: 15px;"/><rect x="-6" y="-6" rx="4" width="76" height="52" class="djs-outline" style="fill: none;"/></g></g><g class="djs-group"><g class="djs-element djs-shape" data-element-id="sid-7A7C8C65-8176-4BBC-9A4B-7267F8211D5A" style="display: block;" transform="matrix(1 0 0 1 305 495)"><g class="djs-visual"><rect x="0" y="0" width="100" height="80" rx="10" ry="10" style="stroke-linecap: round; stroke-linejoin: round; stroke: rgb(34, 36, 42); stroke-width: 2px; fill: white; fill-opacity: 0.95;"/><text lineHeight="1.2" class="djs-label" style="font-family: Arial, sans-serif; font-size: 12px; font-weight: normal; fill: rgb(34, 36, 42);"><tspan x="8.640625" y="36.4">Scoring Level 1</tspan><tspan x="17.8154296875" y="50.8">durchführen</tspan></text></g><rect class="djs-hit djs-hit-all" x="0" y="0" width="100" height="80" style="fill: none; stroke-opacity: 0; stroke: white; stroke-width: 15px;"/><rect x="-6" y="-6" rx="4" width="112" height="92" class="djs-outline" style="fill: none;"/></g></g><g class="djs-group"><g class="djs-element djs-shape" data-element-id="sid-2AB7E929-E56F-43BE-A06C-26ECB66B8227" style="display: block;" transform="matrix(1 0 0 1 335 617)"><g class="djs-visual"><polygon points="20,0 40,20 20,40 0,20" style="stroke-linecap: round; stroke-linejoin: round; stroke: rgb(34, 36, 42); stroke-width: 2px; fill: white; fill-opacity: 0.95;"/><path d="m 12.8,12 5.942857142857143,7.771428571428571 -5.942857142857143,7.771428571428571 2.742857142857143,0 4.571428571428571,-5.971382857142857 4.571428571428571,5.971382857142857 2.742857142857143,0 -5.942857142857143,-7.771428571428571 5.942857142857143,-7.771428571428571 -2.742857142857143,0 -4.571428571428571,5.971382857142857 -4.571428571428571,-5.971382857142857 -2.742857142857143,0 z" style="fill: rgb(34, 36, 42); stroke-linecap: round; stroke-linejoin: round; stroke: rgb(34, 36, 42); stroke-width: 1px;"/></g><rect class="djs-hit djs-hit-all" x="0" y="0" width="40" height="40" style="fill: none; stroke-opacity: 0; stroke: white; stroke-width: 15px;"/><rect x="-6" y="-6" rx="4" width="52" height="52" class="djs-outline" style="fill: none;"/></g></g><g class="djs-group"><g class="djs-element djs-shape" data-element-id="sid-2AB7E929-E56F-43BE-A06C-26ECB66B8227_label" style="display: block;" transform="matrix(1 0 0 1 369 648)"><g class="djs-visual"><text lineHeight="1.2" class="djs-label" style="font-family: Arial, sans-serif; font-size: 11px; font-weight: normal; fill: rgb(34, 36, 42);"><tspan x="2.75" y="9.899999999999999">Sofortige </tspan><tspan x="0" y="23.099999999999998">Ermittlung </tspan><tspan x="2.75" y="36.3">möglich?</tspan></text></g><rect class="djs-hit djs-hit-all" x="0" y="0" width="50" height="40" style="fill: none; stroke-opacity: 0; stroke: white; stroke-width: 15px;"/><rect x="-6" y="-6" rx="4" width="62" height="52" class="djs-outline" style="fill: none;"/></g></g><g class="djs-group"><g class="djs-element djs-shape" data-element-id="sid-ECCB0EA8-87FB-402A-AA79-0FCF0EBF472B" style="display: block;" transform="matrix(1 0 0 1 745 637)"><g class="djs-visual"><rect x="0" y="0" width="100" height="80" rx="10" ry="10" style="stroke-linecap: round; stroke-linejoin: round; stroke: rgb(34, 36, 42); stroke-width: 2px; fill: white; fill-opacity: 0.95;"/><text lineHeight="1.2" class="djs-label" style="font-family: Arial, sans-serif; font-size: 12px; font-weight: normal; fill: rgb(34, 36, 42);"><tspan x="8.478515625" y="36.4">Scoring Level 2</tspan><tspan x="17.8154296875" y="50.8">durchführen</tspan></text></g><rect class="djs-hit djs-hit-all" x="0" y="0" width="100" height="80" style="fill: none; stroke-opacity: 0; stroke: white; stroke-width: 15px;"/><rect x="-6" y="-6" rx="4" width="112" height="92" class="djs-outline" style="fill: none;"/></g></g><g class="djs-group"><g class="djs-element djs-shape" data-element-id="sid-482FF516-BC99-445A-B36B-53E238EABA11" style="display: block;" transform="matrix(1 0 0 1 550 637)"><g class="djs-visual"><rect x="0" y="0" width="100" height="80" rx="10" ry="10" style="stroke-linecap: round; stroke-linejoin: round; stroke: rgb(34, 36, 42); stroke-width: 2px; fill: white; fill-opacity: 0.95;"/><text lineHeight="1.2" class="djs-label" style="font-family: Arial, sans-serif; font-size: 12px; font-weight: normal; fill: rgb(34, 36, 42);"><tspan x="7.470703125" y="36.4">Verzögerung an</tspan><tspan x="14.8154296875" y="50.8">Bank melden</tspan></text></g><rect class="djs-hit djs-hit-all" x="0" y="0" width="100" height="80" style="fill: none; stroke-opacity: 0; stroke: white; stroke-width: 15px;"/><rect x="-6" y="-6" rx="4" width="112" height="92" class="djs-outline" style="fill: none;"/></g></g><g class="djs-group"><g class="djs-element djs-shape" data-element-id="sid-38E981C2-5243-4973-AFE3-EBA2F1EC2ECC" style="display: block;" transform="matrix(1 0 0 1 891 663)"><g class="djs-visual"><circle cx="14" cy="14" r="14" style="stroke-linecap: round; stroke-linejoin: round; stroke: rgb(34, 36, 42); stroke-width: 4px; fill: white; fill-opacity: 0.95;"/></g><rect class="djs-hit djs-hit-all" x="0" y="0" width="28" height="28" style="fill: none; stroke-opacity: 0; stroke: white; stroke-width: 15px;"/><rect x="-6" y="-6" rx="4" width="40" height="40" class="djs-outline" style="fill: none;"/></g></g><g class="djs-group"><g class="djs-element djs-connection" data-element-id="sid-B5C042B6-8748-43E9-8DD1-3AB100AA626F" style="display: block;"><g class="djs-visual"><path data-corner-radius="5" style="fill: none; stroke-linecap: round; stroke-linejoin: round; stroke: rgb(34, 36, 42); stroke-width: 2px; marker-end: url('#sequenceflow-end-white-hsl_225_10_15_-eiq5encv4nqrac3ae6eiusjjk');" d="M260,637.1679075104538L335,637.5072740262909"/></g><path d="M260,637.1679075104538L335,637.5072740262909" class="djs-hit djs-hit-stroke" style="fill: none; stroke-opacity: 0; stroke: white; stroke-width: 15px;"/><rect x="254" y="631.1679075104538" rx="4" width="87" height="12.339366515837128" class="djs-outline" style="fill: none;"/></g></g><g class="djs-group"><g class="djs-element djs-connection" data-element-id="sid-79AD7CC7-14CA-49A4-AE9E-E5BB7ECD062F" style="display: block;"><g class="djs-visual"><path data-corner-radius="5" style="fill: none; stroke-linecap: round; stroke-linejoin: round; stroke: rgb(34, 36, 42); stroke-width: 2px; marker-end: url('#sequenceflow-end-white-hsl_225_10_15_-eiq5encv4nqrac3ae6eiusjjk');" d="M355.5999025008051,617.1000342072864L355.8050682911119,575"/></g><path d="M355.5999025008051,617.1000342072864L355.8050682911119,575" class="djs-hit djs-hit-stroke" style="fill: none; stroke-opacity: 0; stroke: white; stroke-width: 15px;"/><rect x="349.5999025008051" y="569" rx="4" width="12.205165790306808" height="54.1000342072864" class="djs-outline" style="fill: none;"/></g></g><g class="djs-group"><g class="djs-element djs-shape" data-element-id="sid-79AD7CC7-14CA-49A4-AE9E-E5BB7ECD062F_label" style="display: block;" transform="matrix(1 0 0 1 338 599)"><g class="djs-visual"><text lineHeight="1.2" class="djs-label" style="font-family: Arial, sans-serif; font-size: 11px; font-weight: normal; fill: rgb(34, 36, 42);"><tspan x="0" y="9.899999999999999">ja</tspan></text></g><rect class="djs-hit djs-hit-all" x="0" y="0" width="8" height="14" style="fill: none; stroke-opacity: 0; stroke: white; stroke-width: 15px;"/><rect x="-6" y="-6" rx="4" width="20" height="26" class="djs-outline" style="fill: none;"/></g></g><g class="djs-group"><g class="djs-element djs-connection" data-element-id="sid-980F5C1F-A962-4E80-99F1-B1B4BDC070D0" style="display: block;"><g class="djs-visual"><path data-corner-radius="5" style="fill: none; stroke-linecap: round; stroke-linejoin: round; stroke: rgb(34, 36, 42); stroke-width: 2px; marker-end: url('#sequenceflow-end-white-hsl_225_10_15_-eiq5encv4nqrac3ae6eiusjjk');" d="M650,677.1000342072864L745,677.1000342072864"/></g><path d="M650,677.1000342072864L745,677.1000342072864" class="djs-hit djs-hit-stroke" style="fill: none; stroke-opacity: 0; stroke: white; stroke-width: 15px;"/><rect x="644" y="671.1000342072864" rx="4" width="107" height="12" class="djs-outline" style="fill: none;"/></g></g><g class="djs-group"><g class="djs-element djs-connection" data-element-id="sid-752948DF-C12A-40B9-B820-57DE9CCE47E7" style="display: block;"><g class="djs-visual"><path data-corner-radius="5" style="fill: none; stroke-linecap: round; stroke-linejoin: round; stroke: rgb(34, 36, 42); stroke-width: 2px; marker-end: url('#sequenceflow-end-white-hsl_225_10_15_-eiq5encv4nqrac3ae6eiusjjk');" d="M358,657.1000342072864L358,672.1000342072864C358,674.6000342072864,360.5,677.1000342072864,363,677.1000342072864L550,677.1000342072864"/></g><path d="M358,657.1000342072864L358,677.1000342072864L550,677.1000342072864" class="djs-hit djs-hit-stroke" style="fill: none; stroke-opacity: 0; stroke: white; stroke-width: 15px;"/><rect x="352" y="651.1000342072864" rx="4" width="204" height="32" class="djs-outline" style="fill: none;"/></g></g><g class="djs-group"><g class="djs-element djs-shape" data-element-id="sid-752948DF-C12A-40B9-B820-57DE9CCE47E7_label" style="display: block;" transform="matrix(1 0 0 1 334 624)"><g class="djs-visual"><text lineHeight="1.2" class="djs-label" style="font-family: Arial, sans-serif; font-size: 11px; font-weight: normal; fill: rgb(34, 36, 42);"><tspan x="0" y="9.899999999999999">nein</tspan></text></g><rect class="djs-hit djs-hit-all" x="0" y="0" width="21" height="14" style="fill: none; stroke-opacity: 0; stroke: white; stroke-width: 15px;"/><rect x="-6" y="-6" rx="4" width="33" height="26" class="djs-outline" style="fill: none;"/></g></g><g class="djs-group"><g class="djs-element djs-connection" data-element-id="sid-7622E7E1-E96D-408E-8DB4-A48B0A877853" style="display: block;"><g class="djs-visual"><path data-corner-radius="5" style="fill: none; stroke-linecap: round; stroke-linejoin: round; stroke: rgb(34, 36, 42); stroke-width: 2px; marker-end: url('#sequenceflow-end-white-hsl_225_10_15_-eiq5encv4nqrac3ae6eiusjjk');" d="M845,677.1000342072864L891,677.1000342072864"/></g><path d="M845,677.1000342072864L891,677.1000342072864" class="djs-hit djs-hit-stroke" style="fill: none; stroke-opacity: 0; stroke: white; stroke-width: 15px;"/><rect x="839" y="671.1000342072864" rx="4" width="58" height="12" class="djs-outline" style="fill: none;"/></g></g></g></g><g class="djs-group"><g class="djs-element djs-connection" data-element-id="sid-16F49257-46FD-4B6A-AB58-139C93FECBDC" style="display: block;"><g class="djs-visual"><path data-corner-radius="5" style="fill: none; stroke-linecap: round; stroke-linejoin: round; stroke: rgb(34, 36, 42); stroke-width: 1.5px; marker-end: url('#messageflow-end-white-hsl_225_10_15_-eiq5encv4nqrac3ae6eiusjjk'); marker-start: url('#messageflow-start-white-hsl_225_10_15_-eiq5encv4nqrac3ae6eiusjjk'); stroke-dasharray: 10, 11;" d="M245,375L245,622.1000342072864"/></g><path d="M245,375L245,622.1000342072864" class="djs-hit djs-hit-stroke" style="fill: none; stroke-opacity: 0; stroke: white; stroke-width: 15px;"/><rect x="239" y="369" rx="4" width="12" height="259.1000342072864" class="djs-outline" style="fill: none;"/></g></g><g class="djs-group"><g class="djs-element djs-connection" data-element-id="sid-D3B9B09D-495B-4471-B154-042F97B0FBFC" style="display: block;"><g class="djs-visual"><path data-corner-radius="5" style="fill: none; stroke-linecap: round; stroke-linejoin: round; stroke: rgb(34, 36, 42); stroke-width: 1.5px; marker-end: url('#messageflow-end-white-hsl_225_10_15_-eiq5encv4nqrac3ae6eiusjjk'); marker-start: url('#messageflow-start-white-hsl_225_10_15_-eiq5encv4nqrac3ae6eiusjjk'); stroke-dasharray: 10, 11;" d="M355,495L355,420"/></g><path d="M355,495L355,420" class="djs-hit djs-hit-stroke" style="fill: none; stroke-opacity: 0; stroke: white; stroke-width: 15px;"/><rect x="349" y="414" rx="4" width="12" height="87" class="djs-outline" style="fill: none;"/></g></g><g class="djs-group"><g class="djs-element djs-connection" data-element-id="sid-20FA7CB1-70E4-430C-855F-49129B653F53" style="display: block;"><g class="djs-visual"><path data-corner-radius="5" style="fill: none; stroke-linecap: round; stroke-linejoin: round; stroke: rgb(34, 36, 42); stroke-width: 1.5px; marker-end: url('#messageflow-end-white-hsl_225_10_15_-eiq5encv4nqrac3ae6eiusjjk'); marker-start: url('#messageflow-start-white-hsl_225_10_15_-eiq5encv4nqrac3ae6eiusjjk'); stroke-dasharray: 10, 11;" d="M465,365L465,180"/><path d="m 465,272.5 m -10.5 ,-7 l 0,14 l 21,0 l 0,-14 z l 10.5,6 l 10.5,-6" style="fill: white; stroke-linecap: round; stroke-linejoin: round; stroke: rgb(34, 36, 42); stroke-width: 1px;"/><text lineHeight="1.2" class="djs-label" style="font-family: Arial, sans-serif; font-size: 12px; font-weight: normal; fill: rgb(34, 36, 42);" transform="matrix(1 0 0 1 465 282.5)"><tspan x="0" y="10.799999999999999">Ergebnis</tspan><tspan x="4.3359375" y="25.199999999999996">Level 1</tspan></text></g><path d="M465,365L465,180" class="djs-hit djs-hit-stroke" style="fill: none; stroke-opacity: 0; stroke: white; stroke-width: 15px;"/><rect x="459" y="174" rx="4" width="12" height="197" class="djs-outline" style="fill: none;"/></g></g><g class="djs-group"><g class="djs-element djs-connection" data-element-id="sid-19F669C2-61AD-406A-8920-29282451E0F8" style="display: block;"><g class="djs-visual"><path data-corner-radius="5" style="fill: none; stroke-linecap: round; stroke-linejoin: round; stroke: rgb(34, 36, 42); stroke-width: 1.5px; marker-end: url('#messageflow-end-white-hsl_225_10_15_-eiq5encv4nqrac3ae6eiusjjk'); marker-start: url('#messageflow-start-white-hsl_225_10_15_-eiq5encv4nqrac3ae6eiusjjk'); stroke-dasharray: 10, 11;" d="M710,295L710,180"/></g><path d="M710,295L710,180" class="djs-hit djs-hit-stroke" style="fill: none; stroke-opacity: 0; stroke: white; stroke-width: 15px;"/><rect x="704" y="174" rx="4" width="12" height="127" class="djs-outline" style="fill: none;"/></g></g><g class="djs-group"><g class="djs-element djs-connection" data-element-id="sid-C5BB4979-5DE6-4925-9686-DD1A388B6343" style="display: block;"><g class="djs-visual"><path data-corner-radius="5" style="fill: none; stroke-linecap: round; stroke-linejoin: round; stroke: rgb(34, 36, 42); stroke-width: 1.5px; marker-end: url('#messageflow-end-white-hsl_225_10_15_-eiq5encv4nqrac3ae6eiusjjk'); marker-start: url('#messageflow-start-white-hsl_225_10_15_-eiq5encv4nqrac3ae6eiusjjk'); stroke-dasharray: 10, 11;" d="M795,637.1000342072864L795,350"/></g><path d="M795,637.1000342072864L795,350" class="djs-hit djs-hit-stroke" style="fill: none; stroke-opacity: 0; stroke: white; stroke-width: 15px;"/><rect x="789" y="344" rx="4" width="12" height="299.1000342072864" class="djs-outline" style="fill: none;"/></g></g><g class="djs-group"><g class="djs-element djs-connection" data-element-id="sid-FF08FD67-B595-44C8-A7EA-CD4AC53C6E63" style="display: block;"><g class="djs-visual"><path data-corner-radius="5" style="fill: none; stroke-linecap: round; stroke-linejoin: round; stroke: rgb(34, 36, 42); stroke-width: 1.5px; marker-end: url('#messageflow-end-white-hsl_225_10_15_-eiq5encv4nqrac3ae6eiusjjk'); marker-start: url('#messageflow-start-white-hsl_225_10_15_-eiq5encv4nqrac3ae6eiusjjk'); stroke-dasharray: 10, 11;" d="M905,295L905,180"/></g><path d="M905,295L905,180" class="djs-hit djs-hit-stroke" style="fill: none; stroke-opacity: 0; stroke: white; stroke-width: 15px;"/><rect x="899" y="174" rx="4" width="12" height="127" class="djs-outline" style="fill: none;"/></g></g><g class="djs-group"><g class="djs-element djs-connection" data-element-id="sid-277846D3-B9FF-4072-BDF2-3FAAF6DD4632" style="display: block;"><g class="djs-visual"><path data-corner-radius="5" style="fill: none; stroke-linecap: round; stroke-linejoin: round; stroke: rgb(34, 36, 42); stroke-width: 1.5px; marker-end: url('#messageflow-end-white-hsl_225_10_15_-eiq5encv4nqrac3ae6eiusjjk'); marker-start: url('#messageflow-start-white-hsl_225_10_15_-eiq5encv4nqrac3ae6eiusjjk'); stroke-dasharray: 10, 11;" d="M600,637.1000342072864L600,350"/></g><path d="M600,637.1000342072864L600,350" class="djs-hit djs-hit-stroke" style="fill: none; stroke-opacity: 0; stroke: white; stroke-width: 15px;"/><rect x="594" y="344" rx="4" width="12" height="299.1000342072864" class="djs-outline" style="fill: none;"/></g></g></svg>