<?xml version="1.0" encoding="utf-8"?>
<!-- created with bpmn-js / http://bpmn.io -->
<!DOCTYPE svg PUBLIC "-//W3C//DTD SVG 1.1//EN" "http://www.w3.org/Graphics/SVG/1.1/DTD/svg11.dtd">
<svg xmlns="http://www.w3.org/2000/svg" xmlns:xlink="http://www.w3.org/1999/xlink" width="1633" height="851" viewBox="9 84 1633 851" version="1.1"><defs><marker id="sequenceflow-end-white-hsl_225_10_15_-93jb6syxlgknfruco3zytrohs" viewBox="0 0 20 20" refX="11" refY="10" markerWidth="10" markerHeight="10" orient="auto"><path d="M 1 5 L 11 10 L 1 15 Z" style="stroke-linecap: round; stroke-linejoin: round; stroke: rgb(34, 36, 42); stroke-width: 1px; fill: rgb(34, 36, 42);"/></marker></defs><g class="djs-group"><g class="djs-element djs-shape" data-element-id="sid-6A50AC6D-9431-405C-8370-590996B6A9D5" style="display: block;" transform="matrix(1 0 0 1 15 90)"><g class="djs-visual"><rect x="0" y="0" width="1621" height="839" rx="0" ry="0" style="stroke-linecap: round; stroke-linejoin: round; stroke: rgb(34, 36, 42); stroke-width: 1.5px; fill: white; fill-opacity: 0.95;"/><path style="fill: none; stroke-linecap: round; stroke-linejoin: round; stroke: rgb(34, 36, 42); stroke-width: 1.5px;" d="M30,0L30,839"/><text lineHeight="1.2" class="djs-label" style="font-family: Arial, sans-serif; font-size: 12px; font-weight: normal; fill: rgb(34, 36, 42);" transform="matrix(-1.83697e-16 -1 1 -1.83697e-16 0 839)"><tspan x="397.986328125" y="18.6">Händler</tspan></text></g><rect class="djs-hit djs-hit-all" x="0" y="0" width="1621" height="839" style="fill: none; stroke-opacity: 0; stroke: white; stroke-width: 15px;"/><rect x="-6" y="-6" rx="4" width="1633" height="851" class="djs-outline" style="fill: none;"/></g><g class="djs-children"><g class="djs-group"><g class="djs-element djs-shape" data-element-id="sid-BC5FB43E-C38A-4DE3-A303-47EC1BE2ED92" style="display: block;" transform="matrix(1 0 0 1 45 90)"><g class="djs-visual"><rect x="0" y="0" width="1591" height="250" rx="0" ry="0" style="stroke-linecap: round; stroke-linejoin: round; stroke: rgb(34, 36, 42); stroke-width: 1.5px; fill: white; fill-opacity: 0.35;"/><text lineHeight="1.2" class="djs-label" style="font-family: Arial, sans-serif; font-size: 12px; font-weight: normal; fill: rgb(34, 36, 42);" transform="matrix(-1.83697e-16 -1 1 -1.83697e-16 0 250)"><tspan x="88.80859375" y="18.6">Lagerarbeiter</tspan></text></g><rect class="djs-hit djs-hit-all" x="0" y="0" width="1591" height="250" style="fill: none; stroke-opacity: 0; stroke: white; stroke-width: 15px;"/><rect x="-6" y="-6" rx="4" width="1603" height="262" class="djs-outline" style="fill: none;"/></g></g><g class="djs-group"><g class="djs-element djs-shape" data-element-id="sid-76CEC3D3-A339-4604-903B-E0502772A03C" style="display: block;" transform="matrix(1 0 0 1 45 340)"><g class="djs-visual"><rect x="0" y="0" width="1591" height="339" rx="0" ry="0" style="stroke-linecap: round; stroke-linejoin: round; stroke: rgb(34, 36, 42); stroke-width: 1.5px; fill: white; fill-opacity: 0.35;"/><text lineHeight="1.2" class="djs-label" style="font-family: Arial, sans-serif; font-size: 12px; font-weight: normal; fill: rgb(34, 36, 42);" transform="matrix(-1.83697e-16 -1 1 -1.83697e-16 0 339)"><tspan x="138.4873046875" y="18.6">Sektretariat</tspan></text></g><rect class="djs-hit djs-hit-all" x="0" y="0" width="1591" height="339" style="fill: none; stroke-opacity: 0; stroke: white; stroke-width: 15px;"/><rect x="-6" y="-6" rx="4" width="1603" height="351" class="djs-outline" style="fill: none;"/></g></g><g class="djs-group"><g class="djs-element djs-shape" data-element-id="sid-D42BC307-493E-40A1-A192-6F5A9801D5F2" style="display: block;" transform="matrix(1 0 0 1 45 679)"><g class="djs-visual"><rect x="0" y="0" width="1591" height="250" rx="0" ry="0" style="stroke-linecap: round; stroke-linejoin: round; stroke: rgb(34, 36, 42); stroke-width: 1.5px; fill: white; fill-opacity: 0.35;"/><text lineHeight="1.2" class="djs-label" style="font-family: Arial, sans-serif; font-size: 12px; font-weight: normal; fill: rgb(34, 36, 42);" transform="matrix(-1.83697e-16 -1 1 -1.83697e-16 0 250)"><tspan x="91.1494140625" y="18.6">Logistikleiter</tspan></text></g><rect class="djs-hit djs-hit-all" x="0" y="0" width="1591" height="250" style="fill: none; stroke-opacity: 0; stroke: white; stroke-width: 15px;"/><rect x="-6" y="-6" rx="4" width="1603" height="262" class="djs-outline" style="fill: none;"/></g></g><g class="djs-group"><g class="djs-element djs-shape" data-element-id="sid-91FF7BF3-2EA2-41C8-8EE9-97BCE6FD5BC7" style="display: block;" transform="matrix(1 0 0 1 1065 724)"><g class="djs-visual"><rect x="0" y="0" width="100" height="80" rx="10" ry="10" style="stroke-linecap: round; stroke-linejoin: round; stroke: rgb(34, 36, 42); stroke-width: 2px; fill: white; fill-opacity: 0.95;"/><text lineHeight="1.2" class="djs-label" style="font-family: Arial, sans-serif; font-size: 12px; font-weight: normal; fill: rgb(34, 36, 42);"><tspan x="8.478515625" y="36.4">Versicherungsa</tspan><tspan x="26.65625" y="50.8">bschluss</tspan></text></g><rect class="djs-hit djs-hit-all" x="0" y="0" width="100" height="80" style="fill: none; stroke-opacity: 0; stroke: white; stroke-width: 15px;"/><rect x="-6" y="-6" rx="4" width="112" height="92" class="djs-outline" style="fill: none;"/></g></g><g class="djs-group"><g class="djs-element djs-shape" data-element-id="sid-92B70030-88FD-4350-A01A-A1AD66BB2888" style="display: block;" transform="matrix(1 0 0 1 1416 724)"><g class="djs-visual"><rect x="0" y="0" width="100" height="80" rx="10" ry="10" style="stroke-linecap: round; stroke-linejoin: round; stroke: rgb(34, 36, 42); stroke-width: 2px; fill: white; fill-opacity: 0.95;"/><text lineHeight="1.2" class="djs-label" style="font-family: Arial, sans-serif; font-size: 12px; font-weight: normal; fill: rgb(34, 36, 42);"><tspan x="8.64453125" y="36.4">zur Verpackung </tspan><tspan x="17.484375" y="50.8">bereitstellen</tspan></text></g><rect class="djs-hit djs-hit-all" x="0" y="0" width="100" height="80" style="fill: none; stroke-opacity: 0; stroke: white; stroke-width: 15px;"/><rect x="-6" y="-6" rx="4" width="112" height="92" class="djs-outline" style="fill: none;"/></g></g><g class="djs-group"><g class="djs-element djs-shape" data-element-id="sid-BB4BCB48-3A37-435E-99AD-FAF226439D1B" style="display: block;" transform="matrix(1 0 0 1 107 450)"><g class="djs-visual"><circle cx="15" cy="15" r="15" style="stroke-linecap: round; stroke-linejoin: round; stroke: rgb(34, 36, 42); stroke-width: 2px; fill: white; fill-opacity: 0.95;"/></g><rect class="djs-hit djs-hit-all" x="0" y="0" width="30" height="30" style="fill: none; stroke-opacity: 0; stroke: white; stroke-width: 15px;"/><rect x="-6" y="-6" rx="4" width="42" height="42" class="djs-outline" style="fill: none;"/></g></g><g class="djs-group"><g class="djs-element djs-shape" data-element-id="sid-BB4BCB48-3A37-435E-99AD-FAF226439D1B_label" style="display: block;" transform="matrix(1 0 0 1 97 482)"><g class="djs-visual"><text lineHeight="1.2" class="djs-label" style="font-family: Arial, sans-serif; font-size: 11px; font-weight: normal; fill: rgb(34, 36, 42);"><tspan x="5.55322265625" y="9.899999999999999">Versand </tspan><tspan x="0" y="23.099999999999998">beauftragt</tspan></text></g><rect class="djs-hit djs-hit-all" x="0" y="0" width="51" height="27" style="fill: none; stroke-opacity: 0; stroke: white; stroke-width: 15px;"/><rect x="-6" y="-6" rx="4" width="63" height="39" class="djs-outline" style="fill: none;"/></g></g><g class="djs-group"><g class="djs-element djs-shape" data-element-id="sid-0921C5A7-F8D1-4343-80FB-3B813B6AC84D" style="display: block;" transform="matrix(1 0 0 1 282 425)"><g class="djs-visual"><rect x="0" y="0" width="140" height="80" rx="10" ry="10" style="stroke-linecap: round; stroke-linejoin: round; stroke: rgb(34, 36, 42); stroke-width: 2px; fill: white; fill-opacity: 0.95;"/><text lineHeight="1.2" class="djs-label" style="font-family: Arial, sans-serif; font-size: 12px; font-weight: normal; fill: rgb(34, 36, 42);"><tspan x="32.8115234375" y="43.599999999999994">Menge prüfen</tspan></text></g><rect class="djs-hit djs-hit-all" x="0" y="0" width="140" height="80" style="fill: none; stroke-opacity: 0; stroke: white; stroke-width: 15px;"/><rect x="-6" y="-6" rx="4" width="152" height="92" class="djs-outline" style="fill: none;"/></g></g><g class="djs-group"><g class="djs-element djs-shape" data-element-id="sid-005F71D2-0631-4710-8ABF-794116B1272F" style="display: block;" transform="matrix(1 0 0 1 467 445)"><g class="djs-visual"><polygon points="20,0 40,20 20,40 0,20" style="stroke-linecap: round; stroke-linejoin: round; stroke: rgb(34, 36, 42); stroke-width: 2px; fill: white; fill-opacity: 0.95;"/><path d="m 12.8,12 5.942857142857143,7.771428571428571 -5.942857142857143,7.771428571428571 2.742857142857143,0 4.571428571428571,-5.971382857142857 4.571428571428571,5.971382857142857 2.742857142857143,0 -5.942857142857143,-7.771428571428571 5.942857142857143,-7.771428571428571 -2.742857142857143,0 -4.571428571428571,5.971382857142857 -4.571428571428571,-5.971382857142857 -2.742857142857143,0 z" style="fill: rgb(34, 36, 42); stroke-linecap: round; stroke-linejoin: round; stroke: rgb(34, 36, 42); stroke-width: 1px;"/></g><rect class="djs-hit djs-hit-all" x="0" y="0" width="40" height="40" style="fill: none; stroke-opacity: 0; stroke: white; stroke-width: 15px;"/><rect x="-6" y="-6" rx="4" width="52" height="52" class="djs-outline" style="fill: none;"/></g></g><g class="djs-group"><g class="djs-element djs-shape" data-element-id="sid-005F71D2-0631-4710-8ABF-794116B1272F_label" style="display: block;" transform="matrix(1 0 0 1 498 476)"><g class="djs-visual"><text lineHeight="1.2" class="djs-label" style="font-family: Arial, sans-serif; font-size: 11px; font-weight: normal; fill: rgb(34, 36, 42);"><tspan x="0" y="9.899999999999999">Menge?</tspan></text></g><rect class="djs-hit djs-hit-all" x="0" y="0" width="40" height="14" style="fill: none; stroke-opacity: 0; stroke: white; stroke-width: 15px;"/><rect x="-6" y="-6" rx="4" width="52" height="26" class="djs-outline" style="fill: none;"/></g></g><g class="djs-group"><g class="djs-element djs-shape" data-element-id="sid-07FD3276-88BD-40F8-97C9-85C1CEA7D6D0" style="display: block;" transform="matrix(1 0 0 1 634 425)"><g class="djs-visual"><rect x="0" y="0" width="115" height="80" rx="10" ry="10" style="stroke-linecap: round; stroke-linejoin: round; stroke: rgb(34, 36, 42); stroke-width: 2px; fill: white; fill-opacity: 0.95;"/><text lineHeight="1.2" class="djs-label" style="font-family: Arial, sans-serif; font-size: 12px; font-weight: normal; fill: rgb(34, 36, 42);"><tspan x="7.7919921875" y="43.599999999999994">Angebote einholen</tspan></text></g><rect class="djs-hit djs-hit-all" x="0" y="0" width="115" height="80" style="fill: none; stroke-opacity: 0; stroke: white; stroke-width: 15px;"/><rect x="-6" y="-6" rx="4" width="127" height="92" class="djs-outline" style="fill: none;"/></g></g><g class="djs-group"><g class="djs-element djs-shape" data-element-id="sid-F4CD1FE9-858D-41B4-BF0F-0620B24D92A3" style="display: block;" transform="matrix(1 0 0 1 791 425)"><g class="djs-visual"><rect x="0" y="0" width="140" height="80" rx="10" ry="10" style="stroke-linecap: round; stroke-linejoin: round; stroke: rgb(34, 36, 42); stroke-width: 2px; fill: white; fill-opacity: 0.95;"/><text lineHeight="1.2" class="djs-label" style="font-family: Arial, sans-serif; font-size: 12px; font-weight: normal; fill: rgb(34, 36, 42);"><tspan x="17.62890625" y="43.599999999999994">Angebot auswählen</tspan></text></g><rect class="djs-hit djs-hit-all" x="0" y="0" width="140" height="80" style="fill: none; stroke-opacity: 0; stroke: white; stroke-width: 15px;"/><rect x="-6" y="-6" rx="4" width="152" height="92" class="djs-outline" style="fill: none;"/></g></g><g class="djs-group"><g class="djs-element djs-shape" data-element-id="sid-D9C260BD-3296-4F0B-80CF-F8DD71F1499D" style="display: block;" transform="matrix(1 0 0 1 1065 425)"><g class="djs-visual"><rect x="0" y="0" width="100" height="80" rx="10" ry="10" style="stroke-linecap: round; stroke-linejoin: round; stroke: rgb(34, 36, 42); stroke-width: 2px; fill: white; fill-opacity: 0.95;"/><text lineHeight="1.2" class="djs-label" style="font-family: Arial, sans-serif; font-size: 12px; font-weight: normal; fill: rgb(34, 36, 42);"><tspan x="13.8076171875" y="43.599999999999994">Beauftragung</tspan></text></g><rect class="djs-hit djs-hit-all" x="0" y="0" width="100" height="80" style="fill: none; stroke-opacity: 0; stroke: white; stroke-width: 15px;"/><rect x="-6" y="-6" rx="4" width="112" height="92" class="djs-outline" style="fill: none;"/></g></g><g class="djs-group"><g class="djs-element djs-shape" data-element-id="sid-CD28CB4B-EE40-446A-83C9-71DAD40A6BB8" style="display: block;" transform="matrix(1 0 0 1 641 551)"><g class="djs-visual"><rect x="0" y="0" width="100" height="80" rx="10" ry="10" style="stroke-linecap: round; stroke-linejoin: round; stroke: rgb(34, 36, 42); stroke-width: 2px; fill: white; fill-opacity: 0.95;"/><text lineHeight="1.2" class="djs-label" style="font-family: Arial, sans-serif; font-size: 12px; font-weight: normal; fill: rgb(34, 36, 42);"><tspan x="25.654296875" y="36.4">Ausfüllen </tspan><tspan x="17.150390625" y="50.8">Paketschein</tspan></text></g><rect class="djs-hit djs-hit-all" x="0" y="0" width="100" height="80" style="fill: none; stroke-opacity: 0; stroke: white; stroke-width: 15px;"/><rect x="-6" y="-6" rx="4" width="112" height="92" class="djs-outline" style="fill: none;"/></g></g><g class="djs-group"><g class="djs-element djs-shape" data-element-id="sid-B5145479-5F69-4A4F-B472-7F1C6AFDFA28" style="display: block;" transform="matrix(1 0 0 1 1271 445)"><g class="djs-visual"><polygon points="20,0 40,20 20,40 0,20" style="stroke-linecap: round; stroke-linejoin: round; stroke: rgb(34, 36, 42); stroke-width: 2px; fill: white; fill-opacity: 0.95;"/><path d="m 12.8,12 5.942857142857143,7.771428571428571 -5.942857142857143,7.771428571428571 2.742857142857143,0 4.571428571428571,-5.971382857142857 4.571428571428571,5.971382857142857 2.742857142857143,0 -5.942857142857143,-7.771428571428571 5.942857142857143,-7.771428571428571 -2.742857142857143,0 -4.571428571428571,5.971382857142857 -4.571428571428571,-5.971382857142857 -2.742857142857143,0 z" style="fill: rgb(34, 36, 42); stroke-linecap: round; stroke-linejoin: round; stroke: rgb(34, 36, 42); stroke-width: 1px;"/></g><rect class="djs-hit djs-hit-all" x="0" y="0" width="40" height="40" style="fill: none; stroke-opacity: 0; stroke: white; stroke-width: 15px;"/><rect x="-6" y="-6" rx="4" width="52" height="52" class="djs-outline" style="fill: none;"/></g></g><g class="djs-group"><g class="djs-element djs-shape" data-element-id="sid-A0BCE2F0-2665-443D-BC98-3BD5417EB2A4" style="display: block;" transform="matrix(1 0 0 1 962 571)"><g class="djs-visual"><polygon points="20,0 40,20 20,40 0,20" style="stroke-linecap: round; stroke-linejoin: round; stroke: rgb(34, 36, 42); stroke-width: 2px; fill: white; fill-opacity: 0.95;"/><path d="m 12.8,12 5.942857142857143,7.771428571428571 -5.942857142857143,7.771428571428571 2.742857142857143,0 4.571428571428571,-5.971382857142857 4.571428571428571,5.971382857142857 2.742857142857143,0 -5.942857142857143,-7.771428571428571 5.942857142857143,-7.771428571428571 -2.742857142857143,0 -4.571428571428571,5.971382857142857 -4.571428571428571,-5.971382857142857 -2.742857142857143,0 z" style="fill: rgb(34, 36, 42); stroke-linecap: round; stroke-linejoin: round; stroke: rgb(34, 36, 42); stroke-width: 1px;"/></g><rect class="djs-hit djs-hit-all" x="0" y="0" width="40" height="40" style="fill: none; stroke-opacity: 0; stroke: white; stroke-width: 15px;"/><rect x="-6" y="-6" rx="4" width="52" height="52" class="djs-outline" style="fill: none;"/></g></g><g class="djs-group"><g class="djs-element djs-shape" data-element-id="sid-A0BCE2F0-2665-443D-BC98-3BD5417EB2A4_label" style="display: block;" transform="matrix(1 0 0 1 1029 601)"><g class="djs-visual"><text lineHeight="1.2" class="djs-label" style="font-family: Arial, sans-serif; font-size: 11px; font-weight: normal; fill: rgb(34, 36, 42);"><tspan x="0" y="9.899999999999999">Versicherung </tspan><tspan x="3.46875" y="23.099999999999998">notwendig?</tspan></text></g><rect class="djs-hit djs-hit-all" x="0" y="0" width="64" height="27" style="fill: none; stroke-opacity: 0; stroke: white; stroke-width: 15px;"/><rect x="-6" y="-6" rx="4" width="76" height="39" class="djs-outline" style="fill: none;"/></g></g><g class="djs-group"><g class="djs-element djs-shape" data-element-id="sid-F3728D44-60D3-479E-B59D-F5F9D80141DD" style="display: block;" transform="matrix(1 0 0 1 1210 571)"><g class="djs-visual"><polygon points="20,0 40,20 20,40 0,20" style="stroke-linecap: round; stroke-linejoin: round; stroke: rgb(34, 36, 42); stroke-width: 2px; fill: white; fill-opacity: 0.95;"/><path d="m 12.8,12 5.942857142857143,7.771428571428571 -5.942857142857143,7.771428571428571 2.742857142857143,0 4.571428571428571,-5.971382857142857 4.571428571428571,5.971382857142857 2.742857142857143,0 -5.942857142857143,-7.771428571428571 5.942857142857143,-7.771428571428571 -2.742857142857143,0 -4.571428571428571,5.971382857142857 -4.571428571428571,-5.971382857142857 -2.742857142857143,0 z" style="fill: rgb(34, 36, 42); stroke-linecap: round; stroke-linejoin: round; stroke: rgb(34, 36, 42); stroke-width: 1px;"/></g><rect class="djs-hit djs-hit-all" x="0" y="0" width="40" height="40" style="fill: none; stroke-opacity: 0; stroke: white; stroke-width: 15px;"/><rect x="-6" y="-6" rx="4" width="52" height="52" class="djs-outline" style="fill: none;"/></g></g><g class="djs-group"><g class="djs-element djs-shape" data-element-id="sid-6DD61269-78C1-4D8C-B637-6E867ADD7951" style="display: block;" transform="matrix(1 0 0 1 183 445)"><g class="djs-visual"><polygon points="20,0 40,20 20,40 0,20" style="stroke-linecap: round; stroke-linejoin: round; stroke: rgb(34, 36, 42); stroke-width: 2px; fill: white; fill-opacity: 0.95;"/><path d="m 18.400000000000002,8 0,10 -10,0 0,3.9999999999999996 10,0 0,10 3.9999999999999996,0 0,-10 10,0 0,-3.9999999999999996 -10,0 0,-10 -3.9999999999999996,0 z" style="fill: rgb(34, 36, 42); stroke-linecap: round; stroke-linejoin: round; stroke: rgb(34, 36, 42); stroke-width: 1px;"/></g><rect class="djs-hit djs-hit-all" x="0" y="0" width="40" height="40" style="fill: none; stroke-opacity: 0; stroke: white; stroke-width: 15px;"/><rect x="-6" y="-6" rx="4" width="52" height="52" class="djs-outline" style="fill: none;"/></g></g><g class="djs-group"><g class="djs-element djs-shape" data-element-id="sid-BEAB5FF1-DC3E-4432-870B-636E0E381204" style="display: block;" transform="matrix(1 0 0 1 1331 445)"><g class="djs-visual"><polygon points="20,0 40,20 20,40 0,20" style="stroke-linecap: round; stroke-linejoin: round; stroke: rgb(34, 36, 42); stroke-width: 2px; fill: white; fill-opacity: 0.95;"/><path d="m 18.400000000000002,8 0,10 -10,0 0,3.9999999999999996 10,0 0,10 3.9999999999999996,0 0,-10 10,0 0,-3.9999999999999996 -10,0 0,-10 -3.9999999999999996,0 z" style="fill: rgb(34, 36, 42); stroke-linecap: round; stroke-linejoin: round; stroke: rgb(34, 36, 42); stroke-width: 1px;"/></g><rect class="djs-hit djs-hit-all" x="0" y="0" width="40" height="40" style="fill: none; stroke-opacity: 0; stroke: white; stroke-width: 15px;"/><rect x="-6" y="-6" rx="4" width="52" height="52" class="djs-outline" style="fill: none;"/></g></g><g class="djs-group"><g class="djs-element djs-shape" data-element-id="sid-9B3D0E7A-8676-4C01-8858-B77CCD80285B" style="display: block;" transform="matrix(1 0 0 1 1561 451)"><g class="djs-visual"><circle cx="14" cy="14" r="14" style="stroke-linecap: round; stroke-linejoin: round; stroke: rgb(34, 36, 42); stroke-width: 4px; fill: white; fill-opacity: 0.95;"/></g><rect class="djs-hit djs-hit-all" x="0" y="0" width="28" height="28" style="fill: none; stroke-opacity: 0; stroke: white; stroke-width: 15px;"/><rect x="-6" y="-6" rx="4" width="40" height="40" class="djs-outline" style="fill: none;"/></g></g><g class="djs-group"><g class="djs-element djs-shape" data-element-id="sid-9B3D0E7A-8676-4C01-8858-B77CCD80285B_label" style="display: block;" transform="matrix(1 0 0 1 1531 481)"><g class="djs-visual"><text lineHeight="1.2" class="djs-label" style="font-family: Arial, sans-serif; font-size: 11px; font-weight: normal; fill: rgb(34, 36, 42);"><tspan x="0" y="9.899999999999999">Auftrag bearbeitet</tspan></text></g><rect class="djs-hit djs-hit-all" x="0" y="0" width="88" height="14" style="fill: none; stroke-opacity: 0; stroke: white; stroke-width: 15px;"/><rect x="-6" y="-6" rx="4" width="100" height="26" class="djs-outline" style="fill: none;"/></g></g><g class="djs-group"><g class="djs-element djs-shape" data-element-id="sid-D762C342-ABF3-4838-9A13-3D5350C735DD" style="display: block;" transform="matrix(1 0 0 1 791 550)"><g class="djs-visual"><rect x="0" y="0" width="140" height="80" rx="10" ry="10" style="stroke-linecap: round; stroke-linejoin: round; stroke: rgb(34, 36, 42); stroke-width: 2px; fill: white; fill-opacity: 0.95;"/><text lineHeight="1.2" class="djs-label" style="font-family: Arial, sans-serif; font-size: 12px; font-weight: normal; fill: rgb(34, 36, 42);"><tspan x="16.80078125" y="43.599999999999994">Versicherung nötig?</tspan></text></g><rect class="djs-hit djs-hit-all" x="0" y="0" width="140" height="80" style="fill: none; stroke-opacity: 0; stroke: white; stroke-width: 15px;"/><rect x="-6" y="-6" rx="4" width="152" height="92" class="djs-outline" style="fill: none;"/></g></g><g class="djs-group"><g class="djs-element djs-shape" data-element-id="sid-BC8CAF65-9501-4AFA-8214-CB06C023D7F0" style="display: block;" transform="matrix(1 0 0 1 872 236)"><g class="djs-visual"><rect x="0" y="0" width="100" height="80" rx="10" ry="10" style="stroke-linecap: round; stroke-linejoin: round; stroke: rgb(34, 36, 42); stroke-width: 2px; fill: white; fill-opacity: 0.95;"/><text lineHeight="1.2" class="djs-label" style="font-family: Arial, sans-serif; font-size: 12px; font-weight: normal; fill: rgb(34, 36, 42);"><tspan x="36.224609375" y="29.200000000000003">Ware </tspan><tspan x="22.654296875" y="43.6">verpacken</tspan><tspan x="50" y="58"/></text></g><rect class="djs-hit djs-hit-all" x="0" y="0" width="100" height="80" style="fill: none; stroke-opacity: 0; stroke: white; stroke-width: 15px;"/><rect x="-6" y="-6" rx="4" width="112" height="92" class="djs-outline" style="fill: none;"/></g></g><g class="djs-group"><g class="djs-element djs-connection" data-element-id="sid-492E7BC4-FC7D-4EB0-99C0-5889593C8E34" style="display: block;"><g class="djs-visual"><path data-corner-radius="5" style="fill: none; stroke-linecap: round; stroke-linejoin: round; stroke: rgb(34, 36, 42); stroke-width: 2px; marker-end: url('#sequenceflow-end-white-hsl_225_10_15_-93jb6syxlgknfruco3zytrohs');" d="M421.64000563414123,465.25830258302585L466.6400056341412,465.42435424354244"/></g><path d="M421.64000563414123,465.25830258302585L466.6400056341412,465.42435424354244" class="djs-hit djs-hit-stroke" style="fill: none; stroke-opacity: 0; stroke: white; stroke-width: 15px;"/><rect x="415.64000563414123" y="459.25830258302585" rx="4" width="56.99999999999994" height="12.166051660516587" class="djs-outline" style="fill: none;"/></g></g><g class="djs-group"><g class="djs-element djs-connection" data-element-id="sid-FB7A3A08-3FD0-45B5-8CF1-18E0F0447274" style="display: block;"><g class="djs-visual"><path data-corner-radius="5" style="fill: none; stroke-linecap: round; stroke-linejoin: round; stroke: rgb(34, 36, 42); stroke-width: 2px; marker-end: url('#sequenceflow-end-white-hsl_225_10_15_-93jb6syxlgknfruco3zytrohs');" d="M506.6400056341412,465.4521495878448L633.6400056341412,465.1405084420135"/></g><path d="M506.6400056341412,465.4521495878448L633.6400056341412,465.1405084420135" class="djs-hit djs-hit-stroke" style="fill: none; stroke-opacity: 0; stroke: white; stroke-width: 15px;"/><rect x="500.6400056341412" y="459.1405084420135" rx="4" width="139" height="12.311641145831288" class="djs-outline" style="fill: none;"/></g></g><g class="djs-group"><g class="djs-element djs-shape" data-element-id="sid-FB7A3A08-3FD0-45B5-8CF1-18E0F0447274_label" style="display: block;" transform="matrix(1 0 0 1 516 445)"><g class="djs-visual"><text lineHeight="1.2" class="djs-label" style="font-family: Arial, sans-serif; font-size: 11px; font-weight: normal; fill: rgb(34, 36, 42);"><tspan x="0" y="9.899999999999999">Große Menge</tspan></text></g><rect class="djs-hit djs-hit-all" x="0" y="0" width="68" height="14" style="fill: none; stroke-opacity: 0; stroke: white; stroke-width: 15px;"/><rect x="-6" y="-6" rx="4" width="80" height="26" class="djs-outline" style="fill: none;"/></g></g><g class="djs-group"><g class="djs-element djs-connection" data-element-id="sid-9E00CD96-A88A-4D2E-BFF7-7F3272037F25" style="display: block;"><g class="djs-visual"><path data-corner-radius="5" style="fill: none; stroke-linecap: round; stroke-linejoin: round; stroke: rgb(34, 36, 42); stroke-width: 2px; marker-end: url('#sequenceflow-end-white-hsl_225_10_15_-93jb6syxlgknfruco3zytrohs');" d="M930.9999999999993,465L1064.8217980216132,465"/></g><path d="M930.9999999999993,465L1064.8217980216132,465" class="djs-hit djs-hit-stroke" style="fill: none; stroke-opacity: 0; stroke: white; stroke-width: 15px;"/><rect x="924.9999999999993" y="459" rx="4" width="145.82179802161386" height="12" class="djs-outline" style="fill: none;"/></g></g><g class="djs-group"><g class="djs-element djs-connection" data-element-id="sid-9F4B8CB1-4A3E-4497-8407-31BA29B0353C" style="display: block;"><g class="djs-visual"><path data-corner-radius="5" style="fill: none; stroke-linecap: round; stroke-linejoin: round; stroke: rgb(34, 36, 42); stroke-width: 2px; marker-end: url('#sequenceflow-end-white-hsl_225_10_15_-93jb6syxlgknfruco3zytrohs');" d="M740.6400056341412,590.3739665219293L791,590.2470256170184"/></g><path d="M740.6400056341412,590.3739665219293L791,590.2470256170184" class="djs-hit djs-hit-stroke" style="fill: none; stroke-opacity: 0; stroke: white; stroke-width: 15px;"/><rect x="734.6400056341412" y="584.2470256170184" rx="4" width="62.359994365858824" height="12.126940904910953" class="djs-outline" style="fill: none;"/></g></g><g class="djs-group"><g class="djs-element djs-connection" data-element-id="sid-63DDF129-C85B-4602-A50B-6F6BDB4CC3D4" style="display: block;"><g class="djs-visual"><path data-corner-radius="5" style="fill: none; stroke-linecap: round; stroke-linejoin: round; stroke: rgb(34, 36, 42); stroke-width: 2px; marker-end: url('#sequenceflow-end-white-hsl_225_10_15_-93jb6syxlgknfruco3zytrohs');" d="M1164.8217980216132,763.6074957841989L1225.4300258084993,763.6074957841989C1227.9300258084993,763.6074957841989,1230.4300258084993,761.1074957841989,1230.4300258084993,758.6074957841989L1230.4300258084993,610.5"/></g><path d="M1164.8217980216132,763.6074957841989L1230.4300258084993,763.6074957841989L1230.4300258084993,610.5" class="djs-hit djs-hit-stroke" style="fill: none; stroke-opacity: 0; stroke: white; stroke-width: 15px;"/><rect x="1158.8217980216132" y="604.5" rx="4" width="77.60822778688612" height="165.10749578419893" class="djs-outline" style="fill: none;"/></g></g><g class="djs-group"><g class="djs-element djs-connection" data-element-id="sid-96188894-7660-49E8-9758-01BC3BDF52FB" style="display: block;"><g class="djs-visual"><path data-corner-radius="5" style="fill: none; stroke-linecap: round; stroke-linejoin: round; stroke: rgb(34, 36, 42); stroke-width: 2px; marker-end: url('#sequenceflow-end-white-hsl_225_10_15_-93jb6syxlgknfruco3zytrohs');" d="M137.42000013414622,465.0926755037075L182.63000020121933,465.3719994722963"/></g><path d="M137.42000013414622,465.0926755037075L182.63000020121933,465.3719994722963" class="djs-hit djs-hit-stroke" style="fill: none; stroke-opacity: 0; stroke: white; stroke-width: 15px;"/><rect x="131.42000013414622" y="459.0926755037075" rx="4" width="57.21000006707311" height="12.279323968588812" class="djs-outline" style="fill: none;"/></g></g><g class="djs-group"><g class="djs-element djs-connection" data-element-id="sid-49708178-5597-4970-B045-BBFA4751519C" style="display: block;"><g class="djs-visual"><path data-corner-radius="5" style="fill: none; stroke-linecap: round; stroke-linejoin: round; stroke: rgb(34, 36, 42); stroke-width: 2px; marker-end: url('#sequenceflow-end-white-hsl_225_10_15_-93jb6syxlgknfruco3zytrohs');" d="M222.63000020121933,465.43498501421374L281.64000563414123,465.23602007373603"/></g><path d="M222.63000020121933,465.43498501421374L281.64000563414123,465.23602007373603" class="djs-hit djs-hit-stroke" style="fill: none; stroke-opacity: 0; stroke: white; stroke-width: 15px;"/><rect x="216.63000020121933" y="459.23602007373603" rx="4" width="71.0100054329219" height="12.198964940477708" class="djs-outline" style="fill: none;"/></g></g><g class="djs-group"><g class="djs-element djs-connection" data-element-id="sid-2A850A80-A7AE-4B65-9A6E-58B3B35363F8" style="display: block;"><g class="djs-visual"><path data-corner-radius="5" style="fill: none; stroke-linecap: round; stroke-linejoin: round; stroke: rgb(34, 36, 42); stroke-width: 2px; marker-end: url('#sequenceflow-end-white-hsl_225_10_15_-93jb6syxlgknfruco3zytrohs');" d="M748.1600064390185,465L791,465"/></g><path d="M748.1600064390185,465L791,465" class="djs-hit djs-hit-stroke" style="fill: none; stroke-opacity: 0; stroke: white; stroke-width: 15px;"/><rect x="742.1600064390185" y="459" rx="4" width="54.8399935609815" height="12" class="djs-outline" style="fill: none;"/></g></g><g class="djs-group"><g class="djs-element djs-connection" data-element-id="sid-39F93FB3-FD41-4939-881D-9C1BBFD8422B" style="display: block;"><g class="djs-visual"><path data-corner-radius="5" style="fill: none; stroke-linecap: round; stroke-linejoin: round; stroke: rgb(34, 36, 42); stroke-width: 2px; marker-end: url('#sequenceflow-end-white-hsl_225_10_15_-93jb6syxlgknfruco3zytrohs');" d="M203.30129616993827,445L202.93127771756525,280.9500003608516C202.92563892585574,278.4500067200541,205.42000013414622,275.95001307925656,207.92000013414622,275.95001307925656L871.6400056341412,275.95001307925656"/></g><path d="M203.30129616993827,445L202.92000013414622,275.95001307925656L871.6400056341412,275.95001307925656" class="djs-hit djs-hit-stroke" style="fill: none; stroke-opacity: 0; stroke: white; stroke-width: 15px;"/><rect x="196.92000013414622" y="269.95001307925656" rx="4" width="680.720005499995" height="181.04998692074344" class="djs-outline" style="fill: none;"/></g></g><g class="djs-group"><g class="djs-element djs-connection" data-element-id="sid-4B2AD48D-FB3F-4FCA-A423-94E9A07DB0D2" style="display: block;"><g class="djs-visual"><path data-corner-radius="5" style="fill: none; stroke-linecap: round; stroke-linejoin: round; stroke: rgb(34, 36, 42); stroke-width: 2px; marker-end: url('#sequenceflow-end-white-hsl_225_10_15_-93jb6syxlgknfruco3zytrohs');" d="M1164.8217980216132,465.1419017206759L1270.5000704267661,465.44182029452287"/></g><path d="M1164.8217980216132,465.1419017206759L1270.5000704267661,465.44182029452287" class="djs-hit djs-hit-stroke" style="fill: none; stroke-opacity: 0; stroke: white; stroke-width: 15px;"/><rect x="1158.8217980216132" y="459.1419017206759" rx="4" width="117.67827240515294" height="12.29991857384698" class="djs-outline" style="fill: none;"/></g></g><g class="djs-group"><g class="djs-element djs-connection" data-element-id="sid-304BF350-419C-4890-9A67-3DAC98B4BDAD" style="display: block;"><g class="djs-visual"><path data-corner-radius="5" style="fill: none; stroke-linecap: round; stroke-linejoin: round; stroke: rgb(34, 36, 42); stroke-width: 2px; marker-end: url('#sequenceflow-end-white-hsl_225_10_15_-93jb6syxlgknfruco3zytrohs');" d="M1230.4300258084993,570.5L1230.4300258084993,470.5C1230.4300258084993,468,1232.9300258084993,465.5,1235.4300258084993,465.5L1270.5000704267661,465.5"/></g><path d="M1230.4300258084993,570.5L1230.4300258084993,465.5L1270.5000704267661,465.5" class="djs-hit djs-hit-stroke" style="fill: none; stroke-opacity: 0; stroke: white; stroke-width: 15px;"/><rect x="1224.4300258084993" y="459.5" rx="4" width="52.07004461826682" height="117" class="djs-outline" style="fill: none;"/></g></g><g class="djs-group"><g class="djs-element djs-connection" data-element-id="sid-49D18336-B9C8-48D1-AC08-16A5F5BB3787" style="display: block;"><g class="djs-visual"><path data-corner-radius="5" style="fill: none; stroke-linecap: round; stroke-linejoin: round; stroke: rgb(34, 36, 42); stroke-width: 2px; marker-end: url('#sequenceflow-end-white-hsl_225_10_15_-93jb6syxlgknfruco3zytrohs');" d="M1310.5000704267661,465.3379813907857L1331.178342831919,465.16617293252745"/></g><path d="M1310.5000704267661,465.3379813907857L1331.178342831919,465.16617293252745" class="djs-hit djs-hit-stroke" style="fill: none; stroke-opacity: 0; stroke: white; stroke-width: 15px;"/><rect x="1304.5000704267661" y="459.16617293252745" rx="4" width="32.67827240515294" height="12.171808458258283" class="djs-outline" style="fill: none;"/></g></g><g class="djs-group"><g class="djs-element djs-connection" data-element-id="sid-7187759A-0737-48D4-B027-15C41C217572" style="display: block;"><g class="djs-visual"><path data-corner-radius="5" style="fill: none; stroke-linecap: round; stroke-linejoin: round; stroke: rgb(34, 36, 42); stroke-width: 2px; marker-end: url('#sequenceflow-end-white-hsl_225_10_15_-93jb6syxlgknfruco3zytrohs');" d="M982.598573616251,610.5L982.5985736162509,758.6074957841989C982.5985736162509,761.1074957841989,985.0985736162509,763.6074957841989,987.5985736162509,763.6074957841989L1064.8217980216132,763.6074957841989"/></g><path d="M982.598573616251,610.5L982.5985736162509,763.6074957841989L1064.8217980216132,763.6074957841989" class="djs-hit djs-hit-stroke" style="fill: none; stroke-opacity: 0; stroke: white; stroke-width: 15px;"/><rect x="976.5985736162509" y="604.5" rx="4" width="94.22322440536232" height="165.10749578419893" class="djs-outline" style="fill: none;"/></g></g><g class="djs-group"><g class="djs-element djs-shape" data-element-id="sid-7187759A-0737-48D4-B027-15C41C217572_label" style="display: block;" transform="matrix(1 0 0 1 937 466)"><g class="djs-visual"><text lineHeight="1.2" class="djs-label" style="font-family: Arial, sans-serif; font-size: 11px; font-weight: normal; fill: rgb(34, 36, 42);"><tspan x="0" y="9.899999999999999">Versicherung </tspan><tspan x="4.09375" y="23.099999999999998">erforderlich</tspan></text></g><rect class="djs-hit djs-hit-all" x="0" y="0" width="64" height="27" style="fill: none; stroke-opacity: 0; stroke: white; stroke-width: 15px;"/><rect x="-6" y="-6" rx="4" width="76" height="39" class="djs-outline" style="fill: none;"/></g></g><g class="djs-group"><g class="djs-element djs-connection" data-element-id="sid-55F0CDB1-DABC-4DA8-A360-FDC8D17C878B" style="display: block;"><g class="djs-visual"><path data-corner-radius="5" style="fill: none; stroke-linecap: round; stroke-linejoin: round; stroke: rgb(34, 36, 42); stroke-width: 2px; marker-end: url('#sequenceflow-end-white-hsl_225_10_15_-93jb6syxlgknfruco3zytrohs');" d="M971.6400056341412,275.95001307925656L1347.0116791474159,275.95001307925656C1349.5116791474159,275.95001307925656,1352.0116791474159,278.45001307925656,1352.0116791474159,280.95001307925656L1352.0116791474159,445"/></g><path d="M971.6400056341412,275.95001307925656L1352.0116791474159,275.95001307925656L1352.0116791474159,445" class="djs-hit djs-hit-stroke" style="fill: none; stroke-opacity: 0; stroke: white; stroke-width: 15px;"/><rect x="965.6400056341412" y="269.95001307925656" rx="4" width="392.3716735132747" height="181.04998692074344" class="djs-outline" style="fill: none;"/></g></g><g class="djs-group"><g class="djs-element djs-connection" data-element-id="sid-1A69F946-6DE4-44FB-B1D9-7DBDAD1F73BF" style="display: block;"><g class="djs-visual"><path data-corner-radius="5" style="fill: none; stroke-linecap: round; stroke-linejoin: round; stroke: rgb(34, 36, 42); stroke-width: 2px; marker-end: url('#sequenceflow-end-white-hsl_225_10_15_-93jb6syxlgknfruco3zytrohs');" d="M1351.178342831919,485L1351.178342831919,758.6074957841989C1351.178342831919,761.1074957841989,1353.678342831919,763.6074957841989,1356.178342831919,763.6074957841989L1416.178342831919,763.6074957841989"/></g><path d="M1351.178342831919,485L1351.178342831919,763.6074957841989L1416.178342831919,763.6074957841989" class="djs-hit djs-hit-stroke" style="fill: none; stroke-opacity: 0; stroke: white; stroke-width: 15px;"/><rect x="1345.178342831919" y="479" rx="4" width="77" height="290.60749578419893" class="djs-outline" style="fill: none;"/></g></g><g class="djs-group"><g class="djs-element djs-connection" data-element-id="sid-F6AE98EF-83A9-46A3-B974-0BA7559CC2CB" style="display: block;"><g class="djs-visual"><path data-corner-radius="5" style="fill: none; stroke-linecap: round; stroke-linejoin: round; stroke: rgb(34, 36, 42); stroke-width: 2px; marker-end: url('#sequenceflow-end-white-hsl_225_10_15_-93jb6syxlgknfruco3zytrohs');" d="M1516.178342831919,763.6074957841989L1533.678342831919,763.6074957841989C1536.178342831919,763.6074957841989,1538.678342831919,761.1074957841989,1538.678342831919,758.6074957841989L1538.678342831919,470C1538.678342831919,467.5,1541.178342831919,465,1543.678342831919,465L1561.178342831919,465"/></g><path d="M1516.178342831919,763.6074957841989L1538.678342831919,763.6074957841989L1538.678342831919,465L1561.178342831919,465" class="djs-hit djs-hit-stroke" style="fill: none; stroke-opacity: 0; stroke: white; stroke-width: 15px;"/><rect x="1510.178342831919" y="459" rx="4" width="57" height="310.60749578419893" class="djs-outline" style="fill: none;"/></g></g><g class="djs-group"><g class="djs-element djs-connection" data-element-id="sid-F4107F25-BD56-429B-9BC7-9FF0D2D13A0A" style="display: block;"><g class="djs-visual"><path data-corner-radius="5" style="fill: none; stroke-linecap: round; stroke-linejoin: round; stroke: rgb(34, 36, 42); stroke-width: 2px; marker-end: url('#sequenceflow-end-white-hsl_225_10_15_-93jb6syxlgknfruco3zytrohs');" d="M487.1400056341412,485L487.1400056341412,586.6134175831903C487.1400056341412,589.1134175831903,489.6400056341412,591.6134175831903,492.1400056341412,591.6134175831903L640.6400056341412,591.6134175831903"/></g><path d="M487.1400056341412,485L487.1400056341412,591.6134175831903L640.6400056341412,591.6134175831903" class="djs-hit djs-hit-stroke" style="fill: none; stroke-opacity: 0; stroke: white; stroke-width: 15px;"/><rect x="481.1400056341412" y="479" rx="4" width="165.5" height="118.61341758319031" class="djs-outline" style="fill: none;"/></g></g><g class="djs-group"><g class="djs-element djs-shape" data-element-id="sid-F4107F25-BD56-429B-9BC7-9FF0D2D13A0A_label" style="display: block;" transform="matrix(1 0 0 1 439 407)"><g class="djs-visual"><text lineHeight="1.2" class="djs-label" style="font-family: Arial, sans-serif; font-size: 11px; font-weight: normal; fill: rgb(34, 36, 42);"><tspan x="0" y="9.899999999999999">Kleine Menge</tspan></text></g><rect class="djs-hit djs-hit-all" x="0" y="0" width="68" height="14" style="fill: none; stroke-opacity: 0; stroke: white; stroke-width: 15px;"/><rect x="-6" y="-6" rx="4" width="80" height="26" class="djs-outline" style="fill: none;"/></g></g><g class="djs-group"><g class="djs-element djs-connection" data-element-id="sid-645541B0-3914-428B-B5B9-DBACCC97DD43" style="display: block;"><g class="djs-visual"><path data-corner-radius="5" style="fill: none; stroke-linecap: round; stroke-linejoin: round; stroke: rgb(34, 36, 42); stroke-width: 2px; marker-end: url('#sequenceflow-end-white-hsl_225_10_15_-93jb6syxlgknfruco3zytrohs');" d="M930.9999999999993,590.2266839240375L961.6400056341413,590.3920552742679"/></g><path d="M930.9999999999993,590.2266839240375L961.6400056341413,590.3920552742679" class="djs-hit djs-hit-stroke" style="fill: none; stroke-opacity: 0; stroke: white; stroke-width: 15px;"/><rect x="924.9999999999993" y="584.2266839240375" rx="4" width="42.64000563414197" height="12.16537135023043" class="djs-outline" style="fill: none;"/></g></g></g></g></svg>